<svg width="470" height="115" viewBox="0 0 470 115" fill="none" xmlns="http://www.w3.org/2000/svg">
<path d="M57.5123 14.8002C47.5523 28.8402 29.1923 44.5602 9.51228 55.0002C7.71228 51.6402 3.63228 46.3602 0.512279 43.3602C21.1523 33.2802 40.4723 15.2802 49.3523 0.760206H64.3523C77.3123 19.0002 96.6323 34.1202 115.712 41.9202C112.232 45.5202 108.872 50.4402 106.232 54.8802C87.8723 45.1602 67.8323 28.9602 57.5123 14.8002ZM27.3923 37.1202L87.8723 37.1202V49.7202L27.3923 49.7202V37.1202ZM13.1123 61.6002H102.032V73.9602H13.1123L13.1123 61.6002ZM6.99228 98.0802H108.992V110.44H6.99228L6.99228 98.0802ZM49.5923 42.1602L64.9523 42.1602V104.2H49.5923L49.5923 42.1602ZM20.5523 78.5202L32.1923 73.7202C36.7523 79.8402 41.5523 88.1202 43.3523 93.7602L30.8723 99.1602C29.3123 93.6402 24.8723 84.8802 20.5523 78.5202ZM81.6323 73.8402L95.3123 79.0002C90.3923 86.3202 85.1123 94.1202 80.9123 99.1602L70.1123 94.7202C73.9523 89.0802 78.9923 80.3202 81.6323 73.8402ZM149.912 1.48021H165.272V47.4402C165.272 72.5202 162.512 97.9602 138.392 114.88C135.512 111.64 129.392 106.48 125.432 104.2C147.632 89.5602 149.912 68.9202 149.912 47.3202V1.48021ZM191.792 1.24021L207.152 1.24021V113.8H191.792V1.24021ZM123.872 61.4802L232.232 61.4802V76.1202L123.872 76.1202V61.4802ZM127.352 24.0402L229.112 24.0402V38.4402L127.352 38.4402V24.0402ZM269.072 17.3202C268.232 21.5202 267.632 28.6002 267.632 31.9602C267.632 39.7602 267.632 48.6402 268.352 57.4002C270.032 74.6802 273.632 86.5602 281.192 86.5602C286.952 86.5602 291.632 72.4002 293.912 62.9202L306.032 77.4402C297.992 98.4402 290.552 105.64 280.952 105.64C267.632 105.64 256.232 93.8802 252.872 61.7202C251.672 50.6802 251.552 36.5202 251.552 29.2002C251.552 25.9602 251.432 20.8002 250.592 17.0802L269.072 17.3202ZM329.072 19.9602C340.472 33.7602 349.712 63.7602 351.032 82.1202L335.192 88.3602C333.392 68.9202 326.912 39.8802 313.832 25.0002L329.072 19.9602ZM428.912 20.8002C427.232 33.0402 424.832 47.0802 420.632 61.2402C413.432 85.4802 403.112 100.36 390.032 100.36C376.592 100.36 365.552 85.6002 365.552 65.3202C365.552 37.7202 389.672 13.9602 420.752 13.9602C450.392 13.9602 469.232 34.6002 469.232 60.8802C469.232 86.0802 453.752 103.96 423.512 108.64L414.392 94.4802C419.072 93.8802 422.432 93.2802 425.672 92.5602C440.912 88.8402 452.912 77.9202 452.912 60.2802C452.912 41.4402 441.152 28.0002 420.392 28.0002C394.952 28.0002 381.032 48.7602 381.032 63.8802C381.032 76.0002 385.832 81.8802 390.392 81.8802C395.552 81.8802 400.112 74.2002 405.152 58.0002C408.632 46.7202 411.272 32.9202 412.472 20.3202L428.912 20.8002Z" fill="white"/>
</svg>
