<svg width="345" height="84" viewBox="0 0 345 84" fill="none" xmlns="http://www.w3.org/2000/svg">
<path d="M42.648 10.32C35.344 20.616 21.88 32.144 7.44803 39.8C6.12803 37.336 3.13603 33.464 0.848031 31.264C15.984 23.872 30.152 10.672 36.664 0.0239945L47.664 0.0239945C57.168 13.4 71.336 24.488 85.328 30.208C82.776 32.848 80.312 36.456 78.376 39.712C64.912 32.584 50.216 20.704 42.648 10.32ZM20.56 26.688H64.912V35.928H20.56V26.688ZM10.088 44.64L75.296 44.64V53.704L10.088 53.704V44.64ZM5.60003 71.392H80.4V80.456H5.60003L5.60003 71.392ZM36.84 30.384H48.104L48.104 75.88H36.84L36.84 30.384ZM15.544 57.048L24.08 53.528C27.424 58.016 30.944 64.088 32.264 68.224L23.112 72.184C21.968 68.136 18.712 61.712 15.544 57.048ZM60.336 53.616L70.368 57.4C66.76 62.768 62.888 68.488 59.808 72.184L51.888 68.928C54.704 64.792 58.4 58.368 60.336 53.616ZM110.408 0.551998H121.672V34.256C121.672 52.648 119.648 71.304 101.96 83.712C99.848 81.336 95.36 77.552 92.456 75.88C108.736 65.144 110.408 50.008 110.408 34.168V0.551998ZM141.12 0.375995L152.384 0.375995V82.92H141.12V0.375995ZM91.312 44.552H170.776V55.288H91.312V44.552ZM93.864 17.096L168.488 17.096V27.656H93.864V17.096ZM197.792 12.168C197.176 15.248 196.736 20.44 196.736 22.904C196.736 28.624 196.736 35.136 197.264 41.56C198.496 54.232 201.136 62.944 206.68 62.944C210.904 62.944 214.336 52.56 216.008 45.608L224.896 56.256C219 71.656 213.544 76.936 206.504 76.936C196.736 76.936 188.376 68.312 185.912 44.728C185.032 36.632 184.944 26.248 184.944 20.88C184.944 18.504 184.856 14.72 184.24 11.992L197.792 12.168ZM241.792 14.104C250.152 24.224 256.928 46.224 257.896 59.688L246.28 64.264C244.96 50.008 240.208 28.712 230.616 17.8L241.792 14.104ZM315.008 14.72C313.776 23.696 312.016 33.992 308.936 44.376C303.656 62.152 296.088 73.064 286.496 73.064C276.64 73.064 268.544 62.24 268.544 47.368C268.544 27.128 286.232 9.704 309.024 9.704C330.76 9.704 344.576 24.84 344.576 44.112C344.576 62.592 333.224 75.704 311.048 79.136L304.36 68.752C307.792 68.312 310.256 67.872 312.632 67.344C323.808 64.616 332.608 56.608 332.608 43.672C332.608 29.856 323.984 20 308.76 20C290.104 20 279.896 35.224 279.896 46.312C279.896 55.2 283.416 59.512 286.76 59.512C290.544 59.512 293.888 53.88 297.584 42C300.136 33.728 302.072 23.608 302.952 14.368L315.008 14.72Z" fill="white"/>
</svg>
