<svg width="347" height="87" viewBox="0 0 347 87" fill="none" xmlns="http://www.w3.org/2000/svg">
<mask id="path-1-outside-1_212_57" maskUnits="userSpaceOnUse" x="0" y="-2.98023e-07" width="347" height="87" fill="black">
<rect fill="white" y="-2.98023e-07" width="347" height="87"/>
<path d="M43.648 12.32C41.2427 15.664 38.192 19.1253 34.496 22.704C30.8587 26.2827 26.8107 29.7147 22.352 33C17.952 36.2853 13.3467 39.2187 8.53603 41.8C8.0667 40.92 7.4507 39.952 6.68803 38.896C5.98403 37.84 5.19203 36.8133 4.31203 35.816C3.4907 34.8187 2.6987 33.9387 1.93603 33.176C6.98136 30.7707 11.8214 27.808 16.456 24.288C21.0907 20.7093 25.2267 16.984 28.864 13.112C32.56 9.24 35.4934 5.51466 37.664 1.936L48.664 1.936C51.0694 5.27999 53.7094 8.47733 56.584 11.528C59.4587 14.5787 62.5387 17.3947 65.824 19.976C69.1094 22.5573 72.4827 24.8747 75.944 26.928C79.4054 28.9813 82.896 30.712 86.416 32.12C85.0667 33.4693 83.8054 34.9947 82.632 36.696C81.4587 38.3973 80.3734 40.04 79.376 41.624C76.032 39.864 72.6294 37.84 69.168 35.552C65.7654 33.264 62.48 30.8293 59.312 28.248C56.144 25.608 53.2107 22.9387 50.512 20.24C47.8134 17.5413 45.5254 14.9013 43.648 12.32ZM21.648 28.6H65.912V37.84H21.648V28.6ZM11.088 46.552L76.296 46.552V55.704L11.088 55.704V46.552ZM6.68803 73.304H81.488V82.368H6.68803L6.68803 73.304ZM37.928 32.296H49.104L49.104 77.88H37.928L37.928 32.296ZM16.632 59.048L25.08 55.528C26.1947 56.9947 27.28 58.608 28.336 60.368C29.4507 62.128 30.448 63.8587 31.328 65.56C32.208 67.2613 32.8534 68.7867 33.264 70.136L24.2 74.184C23.848 72.8347 23.2614 71.28 22.44 69.52C21.6187 67.7013 20.7094 65.8827 19.712 64.064C18.7147 62.2453 17.688 60.5733 16.632 59.048ZM61.336 55.616L71.456 59.312C69.696 62.0107 67.8774 64.7093 66 67.408C64.1227 70.048 62.392 72.3067 60.808 74.184L52.888 70.84C53.8854 69.432 54.912 67.8773 55.968 66.176C57.024 64.416 58.0214 62.6267 58.96 60.808C59.8987 58.9307 60.6907 57.2 61.336 55.616ZM111.496 2.552H122.672V36.168C122.672 40.8027 122.467 45.3787 122.056 49.896C121.645 54.4133 120.765 58.8427 119.416 63.184C118.125 67.4667 116.16 71.5147 113.52 75.328C110.939 79.0827 107.419 82.5147 102.96 85.624C102.315 84.8027 101.435 83.8933 100.32 82.896C99.2054 81.8987 98.032 80.9307 96.8 79.992C95.568 79.112 94.4534 78.408 93.456 77.88C97.5627 75.1813 100.819 72.248 103.224 69.08C105.629 65.8533 107.419 62.48 108.592 58.96C109.765 55.3813 110.528 51.6853 110.88 47.872C111.291 44 111.496 40.0987 111.496 36.168V2.552ZM142.208 2.376L153.384 2.376V84.92H142.208V2.376ZM92.4 46.552H171.776V57.288H92.4V46.552ZM94.952 19.008L169.488 19.008V29.656H94.952V19.008ZM198.88 14.08C198.645 15.136 198.44 16.3387 198.264 17.688C198.147 19.0373 198.029 20.3573 197.912 21.648C197.853 22.9387 197.824 23.9947 197.824 24.816C197.765 26.752 197.736 28.7467 197.736 30.8C197.795 32.8533 197.853 34.9653 197.912 37.136C198.029 39.248 198.176 41.36 198.352 43.472C198.763 47.696 199.349 51.4213 200.112 54.648C200.875 57.8747 201.872 60.3973 203.104 62.216C204.336 63.976 205.891 64.856 207.768 64.856C208.765 64.856 209.733 64.2987 210.672 63.184C211.669 62.0693 212.549 60.632 213.312 58.872C214.133 57.0533 214.837 55.1467 215.424 53.152C216.069 51.1573 216.627 49.28 217.096 47.52L225.896 58.256C223.96 63.36 222.024 67.4373 220.088 70.488C218.211 73.48 216.245 75.6507 214.192 77C212.139 78.2907 209.909 78.936 207.504 78.936C204.336 78.936 201.315 77.88 198.44 75.768C195.624 73.656 193.219 70.2533 191.224 65.56C189.229 60.808 187.821 54.5013 187 46.64C186.707 43.9413 186.472 41.096 186.296 38.104C186.179 35.112 186.091 32.2667 186.032 29.568C186.032 26.8693 186.032 24.64 186.032 22.88C186.032 21.648 185.973 20.1813 185.856 18.48C185.739 16.7787 185.563 15.2533 185.328 13.904L198.88 14.08ZM242.88 16.104C244.523 18.0987 246.107 20.5333 247.632 23.408C249.157 26.2827 250.565 29.3627 251.856 32.648C253.147 35.9333 254.291 39.3067 255.288 42.768C256.285 46.1707 257.077 49.5147 257.664 52.8C258.309 56.0267 258.72 58.9893 258.896 61.688L247.28 66.176C246.987 62.5973 246.459 58.696 245.696 54.472C244.933 50.248 243.907 45.9947 242.616 41.712C241.325 37.4293 239.771 33.3813 237.952 29.568C236.192 25.7547 234.109 22.4693 231.704 19.712L242.88 16.104ZM316.008 16.72C315.421 21.1787 314.659 25.9307 313.72 30.976C312.781 36.0213 311.52 41.1253 309.936 46.288C308.235 52.2133 306.24 57.3173 303.952 61.6C301.664 65.8827 299.141 69.1973 296.384 71.544C293.685 73.832 290.723 74.976 287.496 74.976C284.269 74.976 281.277 73.8907 278.52 71.72C275.821 69.4907 273.651 66.44 272.008 62.568C270.424 58.696 269.632 54.296 269.632 49.368C269.632 44.264 270.659 39.4533 272.712 34.936C274.765 30.4187 277.611 26.4293 281.248 22.968C284.944 19.448 289.227 16.6907 294.096 14.696C299.024 12.7013 304.333 11.704 310.024 11.704C315.48 11.704 320.379 12.584 324.72 14.344C329.12 16.104 332.875 18.5387 335.984 21.648C339.093 24.7573 341.469 28.3947 343.112 32.56C344.755 36.7253 345.576 41.2133 345.576 46.024C345.576 52.184 344.315 57.6987 341.792 62.568C339.269 67.4373 335.515 71.456 330.528 74.624C325.6 77.792 319.44 79.9627 312.048 81.136L305.448 70.664C307.149 70.488 308.645 70.2827 309.936 70.048C311.227 69.8133 312.459 69.5493 313.632 69.256C316.448 68.552 319.059 67.5547 321.464 66.264C323.928 64.9147 326.069 63.272 327.888 61.336C329.707 59.3413 331.115 57.024 332.112 54.384C333.168 51.744 333.696 48.84 333.696 45.672C333.696 42.2107 333.168 39.0427 332.112 36.168C331.056 33.2933 329.501 30.8 327.448 28.688C325.395 26.5173 322.901 24.8747 319.968 23.76C317.035 22.5867 313.661 22 309.848 22C305.155 22 301.019 22.8507 297.44 24.552C293.861 26.1947 290.84 28.336 288.376 30.976C285.912 33.616 284.035 36.4613 282.744 39.512C281.512 42.5627 280.896 45.4667 280.896 48.224C280.896 51.1573 281.248 53.6213 281.952 55.616C282.656 57.552 283.507 59.0187 284.504 60.016C285.56 60.9547 286.675 61.424 287.848 61.424C289.08 61.424 290.283 60.808 291.456 59.576C292.688 58.2853 293.891 56.3493 295.064 53.768C296.237 51.1867 297.411 47.9307 298.584 44C299.933 39.776 301.077 35.2587 302.016 30.448C302.955 25.6373 303.629 20.944 304.04 16.368L316.008 16.72Z"/>
</mask>
<path d="M43.648 12.32C41.2427 15.664 38.192 19.1253 34.496 22.704C30.8587 26.2827 26.8107 29.7147 22.352 33C17.952 36.2853 13.3467 39.2187 8.53603 41.8C8.0667 40.92 7.4507 39.952 6.68803 38.896C5.98403 37.84 5.19203 36.8133 4.31203 35.816C3.4907 34.8187 2.6987 33.9387 1.93603 33.176C6.98136 30.7707 11.8214 27.808 16.456 24.288C21.0907 20.7093 25.2267 16.984 28.864 13.112C32.56 9.24 35.4934 5.51466 37.664 1.936L48.664 1.936C51.0694 5.27999 53.7094 8.47733 56.584 11.528C59.4587 14.5787 62.5387 17.3947 65.824 19.976C69.1094 22.5573 72.4827 24.8747 75.944 26.928C79.4054 28.9813 82.896 30.712 86.416 32.12C85.0667 33.4693 83.8054 34.9947 82.632 36.696C81.4587 38.3973 80.3734 40.04 79.376 41.624C76.032 39.864 72.6294 37.84 69.168 35.552C65.7654 33.264 62.48 30.8293 59.312 28.248C56.144 25.608 53.2107 22.9387 50.512 20.24C47.8134 17.5413 45.5254 14.9013 43.648 12.32ZM21.648 28.6H65.912V37.84H21.648V28.6ZM11.088 46.552L76.296 46.552V55.704L11.088 55.704V46.552ZM6.68803 73.304H81.488V82.368H6.68803L6.68803 73.304ZM37.928 32.296H49.104L49.104 77.88H37.928L37.928 32.296ZM16.632 59.048L25.08 55.528C26.1947 56.9947 27.28 58.608 28.336 60.368C29.4507 62.128 30.448 63.8587 31.328 65.56C32.208 67.2613 32.8534 68.7867 33.264 70.136L24.2 74.184C23.848 72.8347 23.2614 71.28 22.44 69.52C21.6187 67.7013 20.7094 65.8827 19.712 64.064C18.7147 62.2453 17.688 60.5733 16.632 59.048ZM61.336 55.616L71.456 59.312C69.696 62.0107 67.8774 64.7093 66 67.408C64.1227 70.048 62.392 72.3067 60.808 74.184L52.888 70.84C53.8854 69.432 54.912 67.8773 55.968 66.176C57.024 64.416 58.0214 62.6267 58.96 60.808C59.8987 58.9307 60.6907 57.2 61.336 55.616ZM111.496 2.552H122.672V36.168C122.672 40.8027 122.467 45.3787 122.056 49.896C121.645 54.4133 120.765 58.8427 119.416 63.184C118.125 67.4667 116.16 71.5147 113.52 75.328C110.939 79.0827 107.419 82.5147 102.96 85.624C102.315 84.8027 101.435 83.8933 100.32 82.896C99.2054 81.8987 98.032 80.9307 96.8 79.992C95.568 79.112 94.4534 78.408 93.456 77.88C97.5627 75.1813 100.819 72.248 103.224 69.08C105.629 65.8533 107.419 62.48 108.592 58.96C109.765 55.3813 110.528 51.6853 110.88 47.872C111.291 44 111.496 40.0987 111.496 36.168V2.552ZM142.208 2.376L153.384 2.376V84.92H142.208V2.376ZM92.4 46.552H171.776V57.288H92.4V46.552ZM94.952 19.008L169.488 19.008V29.656H94.952V19.008ZM198.88 14.08C198.645 15.136 198.44 16.3387 198.264 17.688C198.147 19.0373 198.029 20.3573 197.912 21.648C197.853 22.9387 197.824 23.9947 197.824 24.816C197.765 26.752 197.736 28.7467 197.736 30.8C197.795 32.8533 197.853 34.9653 197.912 37.136C198.029 39.248 198.176 41.36 198.352 43.472C198.763 47.696 199.349 51.4213 200.112 54.648C200.875 57.8747 201.872 60.3973 203.104 62.216C204.336 63.976 205.891 64.856 207.768 64.856C208.765 64.856 209.733 64.2987 210.672 63.184C211.669 62.0693 212.549 60.632 213.312 58.872C214.133 57.0533 214.837 55.1467 215.424 53.152C216.069 51.1573 216.627 49.28 217.096 47.52L225.896 58.256C223.96 63.36 222.024 67.4373 220.088 70.488C218.211 73.48 216.245 75.6507 214.192 77C212.139 78.2907 209.909 78.936 207.504 78.936C204.336 78.936 201.315 77.88 198.44 75.768C195.624 73.656 193.219 70.2533 191.224 65.56C189.229 60.808 187.821 54.5013 187 46.64C186.707 43.9413 186.472 41.096 186.296 38.104C186.179 35.112 186.091 32.2667 186.032 29.568C186.032 26.8693 186.032 24.64 186.032 22.88C186.032 21.648 185.973 20.1813 185.856 18.48C185.739 16.7787 185.563 15.2533 185.328 13.904L198.88 14.08ZM242.88 16.104C244.523 18.0987 246.107 20.5333 247.632 23.408C249.157 26.2827 250.565 29.3627 251.856 32.648C253.147 35.9333 254.291 39.3067 255.288 42.768C256.285 46.1707 257.077 49.5147 257.664 52.8C258.309 56.0267 258.72 58.9893 258.896 61.688L247.28 66.176C246.987 62.5973 246.459 58.696 245.696 54.472C244.933 50.248 243.907 45.9947 242.616 41.712C241.325 37.4293 239.771 33.3813 237.952 29.568C236.192 25.7547 234.109 22.4693 231.704 19.712L242.88 16.104ZM316.008 16.72C315.421 21.1787 314.659 25.9307 313.72 30.976C312.781 36.0213 311.52 41.1253 309.936 46.288C308.235 52.2133 306.24 57.3173 303.952 61.6C301.664 65.8827 299.141 69.1973 296.384 71.544C293.685 73.832 290.723 74.976 287.496 74.976C284.269 74.976 281.277 73.8907 278.52 71.72C275.821 69.4907 273.651 66.44 272.008 62.568C270.424 58.696 269.632 54.296 269.632 49.368C269.632 44.264 270.659 39.4533 272.712 34.936C274.765 30.4187 277.611 26.4293 281.248 22.968C284.944 19.448 289.227 16.6907 294.096 14.696C299.024 12.7013 304.333 11.704 310.024 11.704C315.48 11.704 320.379 12.584 324.72 14.344C329.12 16.104 332.875 18.5387 335.984 21.648C339.093 24.7573 341.469 28.3947 343.112 32.56C344.755 36.7253 345.576 41.2133 345.576 46.024C345.576 52.184 344.315 57.6987 341.792 62.568C339.269 67.4373 335.515 71.456 330.528 74.624C325.6 77.792 319.44 79.9627 312.048 81.136L305.448 70.664C307.149 70.488 308.645 70.2827 309.936 70.048C311.227 69.8133 312.459 69.5493 313.632 69.256C316.448 68.552 319.059 67.5547 321.464 66.264C323.928 64.9147 326.069 63.272 327.888 61.336C329.707 59.3413 331.115 57.024 332.112 54.384C333.168 51.744 333.696 48.84 333.696 45.672C333.696 42.2107 333.168 39.0427 332.112 36.168C331.056 33.2933 329.501 30.8 327.448 28.688C325.395 26.5173 322.901 24.8747 319.968 23.76C317.035 22.5867 313.661 22 309.848 22C305.155 22 301.019 22.8507 297.44 24.552C293.861 26.1947 290.84 28.336 288.376 30.976C285.912 33.616 284.035 36.4613 282.744 39.512C281.512 42.5627 280.896 45.4667 280.896 48.224C280.896 51.1573 281.248 53.6213 281.952 55.616C282.656 57.552 283.507 59.0187 284.504 60.016C285.56 60.9547 286.675 61.424 287.848 61.424C289.08 61.424 290.283 60.808 291.456 59.576C292.688 58.2853 293.891 56.3493 295.064 53.768C296.237 51.1867 297.411 47.9307 298.584 44C299.933 39.776 301.077 35.2587 302.016 30.448C302.955 25.6373 303.629 20.944 304.04 16.368L316.008 16.72Z" fill="#090909"/>
<path d="M43.648 12.32L44.4568 11.7318L43.6436 10.6137L42.8362 11.7361L43.648 12.32ZM34.496 22.704L33.8004 21.9856L33.7947 21.9912L34.496 22.704ZM22.352 33L21.7588 32.1949L21.7537 32.1987L22.352 33ZM8.53603 41.8L7.65368 42.2706L8.12546 43.1552L9.00885 42.6812L8.53603 41.8ZM6.68803 38.896L5.85598 39.4507L5.86638 39.4663L5.87735 39.4815L6.68803 38.896ZM4.31203 35.816L3.5401 36.4517L3.55093 36.4648L3.56219 36.4776L4.31203 35.816ZM1.93603 33.176L1.50569 32.2733L0.228192 32.8824L1.22892 33.8831L1.93603 33.176ZM16.456 24.288L17.0609 25.0844L17.0672 25.0795L16.456 24.288ZM28.864 13.112L28.1407 12.4215L28.1352 12.4273L28.864 13.112ZM37.664 1.936V0.935996H37.101L36.809 1.41738L37.664 1.936ZM48.664 1.936L49.4758 1.35207L49.1766 0.935996H48.664V1.936ZM56.584 11.528L55.8562 12.2138L55.8562 12.2138L56.584 11.528ZM65.824 19.976L65.2062 20.7623L65.2062 20.7623L65.824 19.976ZM75.944 26.928L75.4338 27.7881L75.4338 27.7881L75.944 26.928ZM86.416 32.12L87.1231 32.8271L88.1955 31.7547L86.7874 31.1915L86.416 32.12ZM82.632 36.696L83.4552 37.2637L83.4552 37.2637L82.632 36.696ZM79.376 41.624L78.9103 42.5089L79.7292 42.9399L80.2223 42.1568L79.376 41.624ZM69.168 35.552L68.61 36.3819L68.6166 36.3862L69.168 35.552ZM59.312 28.248L58.6718 29.0163L58.6804 29.0232L59.312 28.248ZM21.648 28.6V27.6H20.648V28.6H21.648ZM65.912 28.6H66.912V27.6H65.912V28.6ZM65.912 37.84V38.84H66.912V37.84H65.912ZM21.648 37.84H20.648V38.84H21.648V37.84ZM11.088 46.552V45.552H10.088V46.552H11.088ZM76.296 46.552H77.296V45.552H76.296V46.552ZM76.296 55.704V56.704H77.296V55.704H76.296ZM11.088 55.704H10.088V56.704H11.088V55.704ZM6.68803 73.304V72.304H5.68803V73.304H6.68803ZM81.488 73.304H82.488V72.304H81.488V73.304ZM81.488 82.368V83.368H82.488V82.368H81.488ZM6.68803 82.368H5.68803V83.368H6.68803V82.368ZM37.928 32.296V31.296H36.928V32.296H37.928ZM49.104 32.296H50.104V31.296H49.104V32.296ZM49.104 77.88V78.88H50.104V77.88H49.104ZM37.928 77.88H36.928V78.88H37.928V77.88ZM16.632 59.048L16.2474 58.1249L15.106 58.6005L15.8098 59.6172L16.632 59.048ZM25.08 55.528L25.8762 54.9229L25.4087 54.3077L24.6954 54.6049L25.08 55.528ZM28.336 60.368L27.4785 60.8825L27.4848 60.8928L27.4912 60.903L28.336 60.368ZM31.328 65.56L30.4398 66.0194L30.4398 66.0194L31.328 65.56ZM33.264 70.136L33.6718 71.0491L34.4777 70.6892L34.2207 69.8448L33.264 70.136ZM24.2 74.184L23.2324 74.4364L23.5303 75.5783L24.6078 75.0971L24.2 74.184ZM22.44 69.52L21.5286 69.9316L21.5338 69.9429L22.44 69.52ZM19.712 64.064L18.8352 64.5448L18.8352 64.5448L19.712 64.064ZM61.336 55.616L61.6791 54.6767L60.7736 54.346L60.4099 55.2387L61.336 55.616ZM71.456 59.312L72.2936 59.8583L72.981 58.8043L71.7991 58.3727L71.456 59.312ZM66 67.408L66.815 67.9876L66.8209 67.9791L66 67.408ZM60.808 74.184L60.4191 75.1052L61.0975 75.3917L61.5723 74.8289L60.808 74.184ZM52.888 70.84L52.072 70.262L51.3528 71.2773L52.4991 71.7612L52.888 70.84ZM55.968 66.176L56.8177 66.7034L56.8216 66.697L56.8255 66.6905L55.968 66.176ZM58.96 60.808L59.8487 61.2667L59.8545 61.2552L58.96 60.808ZM42.8362 11.7361C40.4728 15.0217 37.4638 18.4385 33.8004 21.9856L35.1916 23.4224C38.9203 19.8122 42.0125 16.3063 44.4598 12.9039L42.8362 11.7361ZM33.7947 21.9912C30.1939 25.5339 26.1825 28.9354 21.7588 32.1949L22.9452 33.8051C27.4389 30.4939 31.5235 27.0314 35.1974 23.4168L33.7947 21.9912ZM21.7537 32.1987C17.3933 35.4545 12.8299 38.3611 8.06321 40.9188L9.00885 42.6812C13.8635 40.0762 18.5108 37.1161 22.9503 33.8013L21.7537 32.1987ZM9.41838 41.3294C8.92249 40.3996 8.28032 39.3927 7.49871 38.3105L5.87735 39.4815C6.62107 40.5113 7.2109 41.4404 7.65368 42.2706L9.41838 41.3294ZM7.52008 38.3413C6.78995 37.2461 5.97023 36.1839 5.06187 35.1544L3.56219 36.4776C4.41383 37.4428 5.17811 38.4339 5.85598 39.4507L7.52008 38.3413ZM5.08396 35.1803C4.24603 34.1628 3.43247 33.2582 2.64314 32.4689L1.22892 33.8831C1.96493 34.6191 2.73536 35.4745 3.5401 36.4517L5.08396 35.1803ZM2.36637 34.0787C7.47583 31.6428 12.374 28.644 17.0609 25.0844L15.8512 23.4916C11.2687 26.972 6.4869 29.8986 1.50569 32.2733L2.36637 34.0787ZM17.0672 25.0795C21.7397 21.4716 25.9157 17.711 29.5929 13.7967L28.1352 12.4273C24.5376 16.257 20.4417 19.947 15.8449 23.4965L17.0672 25.0795ZM29.5874 13.8025C33.3203 9.89183 36.3021 6.1095 38.519 2.45461L36.809 1.41738C34.6846 4.91982 31.7998 8.58816 28.1407 12.4215L29.5874 13.8025ZM37.664 2.936L48.664 2.936V0.935996L37.664 0.935996V2.936ZM47.8522 2.51993C50.2837 5.90032 52.9519 9.13162 55.8562 12.2138L57.3118 10.8422C54.4668 7.82303 51.855 4.65967 49.4758 1.35207L47.8522 2.51993ZM55.8562 12.2138C58.7649 15.3005 61.8816 18.1502 65.2062 20.7623L66.4419 19.1897C63.1957 16.6392 60.1525 13.8568 57.3118 10.8422L55.8562 12.2138ZM65.2062 20.7623C68.5245 23.3695 71.9337 25.7117 75.4338 27.7881L76.4542 26.0679C73.0317 24.0376 69.6943 21.7451 66.4419 19.1897L65.2062 20.7623ZM75.4338 27.7881C78.9369 29.8661 82.4738 31.6201 86.0446 33.0485L86.7874 31.1915C83.3182 29.8038 79.8738 28.0965 76.4542 26.0679L75.4338 27.7881ZM85.7089 31.4129C84.3134 32.8084 83.0137 34.3811 81.8088 36.1283L83.4552 37.2637C84.597 35.6082 85.82 34.1302 87.1231 32.8271L85.7089 31.4129ZM81.8088 36.1283C80.6284 37.8399 79.5353 39.4942 78.5298 41.0912L80.2223 42.1568C81.2114 40.5857 82.289 38.9547 83.4552 37.2637L81.8088 36.1283ZM79.8418 40.7391C76.5298 38.996 73.1557 36.9892 69.7195 34.7178L68.6166 36.3862C72.103 38.6908 75.5342 40.732 78.9103 42.5089L79.8418 40.7391ZM69.726 34.7222C66.3487 32.4512 63.0879 30.0347 59.9437 27.4728L58.6804 29.0232C61.8721 31.6239 65.1821 34.0768 68.61 36.3818L69.726 34.7222ZM59.9522 27.4798C56.8056 24.8576 53.8948 22.2086 51.2191 19.5329L49.8049 20.9471C52.5266 23.6688 55.4825 26.3584 58.6718 29.0162L59.9522 27.4798ZM51.2191 19.5329C48.5505 16.8642 46.2981 14.2637 44.4568 11.7318L42.8393 12.9082C44.7526 15.539 47.0762 18.2184 49.8049 20.9471L51.2191 19.5329ZM21.648 29.6H65.912V27.6H21.648V29.6ZM64.912 28.6V37.84H66.912V28.6H64.912ZM65.912 36.84H21.648V38.84H65.912V36.84ZM22.648 37.84V28.6H20.648V37.84H22.648ZM11.088 47.552L76.296 47.552V45.552L11.088 45.552V47.552ZM75.296 46.552V55.704H77.296V46.552H75.296ZM76.296 54.704L11.088 54.704V56.704L76.296 56.704V54.704ZM12.088 55.704V46.552H10.088V55.704H12.088ZM6.68803 74.304H81.488V72.304H6.68803V74.304ZM80.488 73.304V82.368H82.488V73.304H80.488ZM81.488 81.368H6.68803V83.368H81.488V81.368ZM7.68803 82.368L7.68803 73.304H5.68803L5.68803 82.368H7.68803ZM37.928 33.296H49.104V31.296H37.928V33.296ZM48.104 32.296L48.104 77.88H50.104L50.104 32.296H48.104ZM49.104 76.88H37.928V78.88H49.104V76.88ZM38.928 77.88L38.928 32.296H36.928L36.928 77.88H38.928ZM17.0166 59.9711L25.4646 56.4511L24.6954 54.6049L16.2474 58.1249L17.0166 59.9711ZM24.2839 56.1331C25.3741 57.5676 26.4392 59.1503 27.4785 60.8825L29.1935 59.8535C28.1208 58.0657 27.0153 56.4217 25.8762 54.9229L24.2839 56.1331ZM27.4912 60.903C28.5917 62.6406 29.5743 64.346 30.4398 66.0194L32.2162 65.1006C31.3218 63.3713 30.3097 61.6154 29.1809 59.8329L27.4912 60.903ZM30.4398 66.0194C31.3011 67.6846 31.9193 69.1523 32.3074 70.4272L34.2207 69.8448C33.7874 68.4211 33.115 66.8381 32.2162 65.1006L30.4398 66.0194ZM32.8562 69.2229L23.7922 73.2709L24.6078 75.0971L33.6718 71.0491L32.8562 69.2229ZM25.1676 73.9316C24.7957 72.5059 24.184 70.8924 23.3462 69.0971L21.5338 69.9429C22.3387 71.6676 22.9003 73.1634 23.2324 74.4364L25.1676 73.9316ZM23.3514 69.1084C22.519 67.2653 21.5981 65.4236 20.5888 63.5832L18.8352 64.5448C19.8206 66.3418 20.7184 68.1373 21.5287 69.9316L23.3514 69.1084ZM20.5888 63.5832C19.5768 61.7376 18.5321 60.0357 17.4542 58.4788L15.8098 59.6172C16.844 61.111 17.8526 62.7531 18.8352 64.5448L20.5888 63.5832ZM60.993 56.5553L71.113 60.2513L71.7991 58.3727L61.6791 54.6767L60.993 56.5553ZM70.6184 58.7657C68.864 61.4559 67.0509 64.1463 65.1791 66.8369L66.8209 67.9791C68.7038 65.2724 70.5281 62.5654 72.2936 59.8583L70.6184 58.7657ZM65.1851 66.8285C63.319 69.4526 61.6054 71.6883 60.0437 73.5391L61.5723 74.8289C63.1787 72.9251 64.9264 70.6434 66.815 67.9875L65.1851 66.8285ZM61.197 73.2627L53.277 69.9187L52.4991 71.7612L60.4191 75.1052L61.197 73.2627ZM53.7041 71.418C54.7148 69.9911 55.7526 68.4193 56.8177 66.7034L55.1184 65.6486C54.0714 67.3354 53.0559 68.8729 52.072 70.262L53.7041 71.418ZM56.8255 66.6905C57.8925 64.9123 58.9002 63.1043 59.8486 61.2666L58.0714 60.3494C57.1425 62.149 56.1556 63.9197 55.1105 65.6615L56.8255 66.6905ZM59.8545 61.2552C60.8021 59.3599 61.6053 57.6056 62.2621 55.9933L60.4099 55.2387C59.7761 56.7944 58.9953 58.5014 58.0656 60.3608L59.8545 61.2552ZM111.496 2.552V1.552H110.496V2.552H111.496ZM122.672 2.552H123.672V1.552H122.672V2.552ZM122.056 49.896L121.06 49.8055L121.06 49.8055L122.056 49.896ZM119.416 63.184L118.461 62.8872L118.459 62.8954L119.416 63.184ZM113.52 75.328L112.698 74.7588L112.696 74.7615L113.52 75.328ZM102.96 85.624L102.174 86.2418L102.757 86.9845L103.532 86.4442L102.96 85.624ZM100.32 82.896L99.6532 83.6412L99.6532 83.6412L100.32 82.896ZM96.8 79.992L97.4061 79.1966L97.3938 79.1872L97.3813 79.1783L96.8 79.992ZM93.456 77.88L92.9068 77.0443L91.494 77.9728L92.9881 78.7638L93.456 77.88ZM103.224 69.08L104.021 69.6847L104.026 69.6777L103.224 69.08ZM108.592 58.96L109.541 59.2762L109.542 59.2715L108.592 58.96ZM110.88 47.872L109.886 47.7665L109.884 47.7801L110.88 47.872ZM142.208 2.376V1.376H141.208V2.376H142.208ZM153.384 2.376H154.384V1.376H153.384V2.376ZM153.384 84.92V85.92H154.384V84.92H153.384ZM142.208 84.92H141.208V85.92H142.208V84.92ZM92.4 46.552V45.552H91.4V46.552H92.4ZM171.776 46.552H172.776V45.552H171.776V46.552ZM171.776 57.288V58.288H172.776V57.288H171.776ZM92.4 57.288H91.4V58.288H92.4V57.288ZM94.952 19.008V18.008H93.952V19.008H94.952ZM169.488 19.008H170.488V18.008H169.488V19.008ZM169.488 29.656V30.656H170.488V29.656H169.488ZM94.952 29.656H93.952V30.656H94.952V29.656ZM111.496 3.552L122.672 3.552V1.552H111.496V3.552ZM121.672 2.552V36.168H123.672V2.552H121.672ZM121.672 36.168C121.672 40.7731 121.468 45.3189 121.06 49.8055L123.052 49.9865C123.465 45.4385 123.672 40.8322 123.672 36.168H121.672ZM121.06 49.8055C120.656 54.2526 119.79 58.6128 118.461 62.8872L120.371 63.4808C121.741 59.0725 122.635 54.574 123.052 49.9865L121.06 49.8055ZM118.459 62.8954C117.199 67.0744 115.281 71.0282 112.698 74.7588L114.342 75.8972C117.039 72.0012 119.052 67.8589 120.373 63.4725L118.459 62.8954ZM112.696 74.7615C110.194 78.4 106.767 81.7502 102.388 84.8038L103.532 86.4442C108.071 83.2791 111.683 79.7653 114.344 75.8945L112.696 74.7615ZM103.746 85.0062C103.053 84.124 102.128 83.1719 100.987 82.1508L99.6532 83.6412C100.741 84.6148 101.576 85.4813 102.174 86.2418L103.746 85.0062ZM100.987 82.1508C99.8519 81.1353 98.6582 80.1506 97.4061 79.1966L96.194 80.7874C97.4058 81.7107 98.5588 82.662 99.6532 83.6412L100.987 82.1508ZM97.3813 79.1783C96.1244 78.2805 94.9712 77.5507 93.9239 76.9962L92.9881 78.7638C93.9355 79.2653 95.0116 79.9435 96.2188 80.8057L97.3813 79.1783ZM94.0052 78.7157C98.1853 75.9688 101.532 72.9616 104.02 69.6847L102.428 68.4753C100.105 71.5344 96.9401 74.3939 92.9068 77.0443L94.0052 78.7157ZM104.026 69.6777C106.489 66.3728 108.331 62.9055 109.541 59.2762L107.643 58.6438C106.506 62.0545 104.769 65.3338 102.422 68.4823L104.026 69.6777ZM109.542 59.2715C110.739 55.6204 111.517 51.8507 111.876 47.9639L109.884 47.7801C109.539 51.52 108.791 55.1422 107.642 58.6484L109.542 59.2715ZM111.874 47.9775C112.289 44.0701 112.496 40.1336 112.496 36.168H110.496C110.496 40.0638 110.293 43.9299 109.886 47.7665L111.874 47.9775ZM112.496 36.168V2.552H110.496V36.168H112.496ZM142.208 3.376L153.384 3.376V1.376L142.208 1.376V3.376ZM152.384 2.376V84.92H154.384V2.376H152.384ZM153.384 83.92H142.208V85.92H153.384V83.92ZM143.208 84.92V2.376H141.208V84.92H143.208ZM92.4 47.552H171.776V45.552H92.4V47.552ZM170.776 46.552V57.288H172.776V46.552H170.776ZM171.776 56.288H92.4V58.288H171.776V56.288ZM93.4 57.288V46.552H91.4V57.288H93.4ZM94.952 20.008L169.488 20.008V18.008L94.952 18.008V20.008ZM168.488 19.008V29.656H170.488V19.008L168.488 19.008ZM169.488 28.656H94.952V30.656H169.488V28.656ZM95.952 29.656V19.008H93.952V29.656H95.952ZM198.88 14.08L199.856 14.2969L200.123 13.0961L198.893 13.0801L198.88 14.08ZM198.264 17.688L197.272 17.5587L197.27 17.58L197.268 17.6014L198.264 17.688ZM197.912 21.648L196.916 21.5575L196.914 21.58L196.913 21.6026L197.912 21.648ZM197.824 24.816L198.824 24.8463L198.824 24.8311V24.816H197.824ZM197.736 30.8H196.736V30.8143L196.736 30.8286L197.736 30.8ZM197.912 37.136L196.912 37.163L196.913 37.1772L196.914 37.1915L197.912 37.136ZM198.352 43.472L197.355 43.555L197.357 43.5688L198.352 43.472ZM200.112 54.648L201.085 54.418L201.085 54.418L200.112 54.648ZM203.104 62.216L202.276 62.7768L202.28 62.7832L202.285 62.7895L203.104 62.216ZM210.672 63.184L209.927 62.5172L209.917 62.5284L209.907 62.5399L210.672 63.184ZM213.312 58.872L212.401 58.4604L212.398 58.4674L212.394 58.4744L213.312 58.872ZM215.424 53.152L214.473 52.8442L214.468 52.8569L214.465 52.8698L215.424 53.152ZM217.096 47.52L217.869 46.8861L216.633 45.3771L216.13 47.2623L217.096 47.52ZM225.896 58.256L226.831 58.6106L227.036 58.0696L226.669 57.6221L225.896 58.256ZM220.088 70.488L219.244 69.9522L219.241 69.9565L220.088 70.488ZM214.192 77L214.724 77.8466L214.733 77.8413L214.741 77.8357L214.192 77ZM198.44 75.768L197.84 76.568L197.848 76.5739L198.44 75.768ZM191.224 65.56L190.302 65.947L190.304 65.9511L191.224 65.56ZM187 46.64L187.995 46.5361L187.994 46.5319L187 46.64ZM186.296 38.104L185.297 38.1432L185.297 38.153L185.298 38.1627L186.296 38.104ZM186.032 29.568H185.032V29.5789L185.032 29.5897L186.032 29.568ZM185.856 18.48L184.858 18.5488L184.858 18.5488L185.856 18.48ZM185.328 13.904L185.341 12.9041L184.136 12.8884L184.343 14.0753L185.328 13.904ZM242.88 16.104L243.652 15.4683L243.22 14.9435L242.573 15.1524L242.88 16.104ZM247.632 23.408L246.749 23.8767L246.749 23.8767L247.632 23.408ZM251.856 32.648L250.925 33.0136L251.856 32.648ZM255.288 42.768L254.327 43.0449L254.328 43.0493L255.288 42.768ZM257.664 52.8L256.68 52.9758L256.681 52.986L256.683 52.9961L257.664 52.8ZM258.896 61.688L259.256 62.6208L259.942 62.356L259.894 61.6229L258.896 61.688ZM247.28 66.176L246.283 66.2577L246.393 67.5909L247.64 67.1088L247.28 66.176ZM237.952 29.568L237.044 29.9871L237.049 29.9985L237.952 29.568ZM231.704 19.712L231.397 18.7604L229.953 19.2264L230.95 20.3694L231.704 19.712ZM197.904 13.8631C197.661 14.9543 197.451 16.187 197.272 17.5587L199.256 17.8173C199.429 16.4903 199.629 15.3177 199.856 14.2969L197.904 13.8631ZM197.268 17.6014C197.151 18.9495 197.033 20.2682 196.916 21.5575L198.908 21.7385C199.025 20.4465 199.143 19.1252 199.26 17.7746L197.268 17.6014ZM196.913 21.6026C196.854 22.9009 196.824 23.9735 196.824 24.816H198.824C198.824 24.0158 198.853 22.9764 198.911 21.6934L196.913 21.6026ZM196.824 24.7857C196.765 26.7324 196.736 28.7372 196.736 30.8H198.736C198.736 28.7562 198.765 26.7716 198.824 24.8463L196.824 24.7857ZM196.736 30.8286C196.795 32.8813 196.854 34.9928 196.912 37.163L198.912 37.109C198.853 34.9378 198.794 32.8253 198.736 30.7714L196.736 30.8286ZM196.914 37.1915C197.031 39.3127 197.179 41.4339 197.355 43.555L199.349 43.389C199.173 41.2861 199.027 39.1833 198.91 37.0805L196.914 37.1915ZM197.357 43.5688C197.771 47.8259 198.363 51.5973 199.139 54.878L201.085 54.418C200.335 51.2453 199.755 47.5661 199.347 43.3752L197.357 43.5688ZM199.139 54.878C199.917 58.1687 200.951 60.8201 202.276 62.7768L203.932 61.6551C202.793 59.9746 201.833 57.5806 201.085 54.418L199.139 54.878ZM202.285 62.7895C203.673 64.7722 205.513 65.856 207.768 65.856V63.856C206.268 63.856 204.999 63.1798 203.923 61.6425L202.285 62.7895ZM207.768 65.856C209.176 65.856 210.398 65.0616 211.437 63.8281L209.907 62.5399C209.068 63.5357 208.355 63.856 207.768 63.856V65.856ZM211.417 63.8508C212.503 62.6373 213.436 61.1016 214.23 59.2696L212.394 58.4744C211.663 60.1624 210.836 61.5014 209.927 62.5172L211.417 63.8508ZM214.223 59.2836C215.064 57.4212 215.784 55.4712 216.383 53.4342L214.465 52.8698C213.89 54.8221 213.202 56.6854 212.401 58.4604L214.223 59.2836ZM216.375 53.4598C217.025 51.451 217.588 49.5568 218.062 47.7777L216.13 47.2623C215.666 49.0032 215.113 50.8637 214.473 52.8442L216.375 53.4598ZM216.323 48.1539L225.123 58.8899L226.669 57.6221L217.869 46.8861L216.323 48.1539ZM224.961 57.9013C223.038 62.9706 221.13 66.9797 219.244 69.9522L220.932 71.0238C222.918 67.8949 224.882 63.7494 226.831 58.6106L224.961 57.9013ZM219.241 69.9565C217.409 72.8761 215.536 74.9205 213.643 76.1643L214.741 77.8357C216.955 76.3809 219.012 74.0839 220.935 71.0195L219.241 69.9565ZM213.66 76.1534C211.765 77.3447 209.719 77.936 207.504 77.936V79.936C210.099 79.936 212.513 79.2366 214.724 77.8466L213.66 76.1534ZM207.504 77.936C204.575 77.936 201.758 76.9646 199.032 74.9621L197.848 76.5739C200.872 78.7954 204.097 79.936 207.504 79.936V77.936ZM199.04 74.968C196.414 72.9987 194.099 69.7683 192.144 65.1689L190.304 65.9511C192.338 70.7383 194.834 74.3133 197.84 76.568L199.04 74.968ZM192.146 65.173C190.204 60.5459 188.811 54.3461 187.995 46.5361L186.005 46.7439C186.832 54.6566 188.255 61.0701 190.302 65.947L192.146 65.173ZM187.994 46.5319C187.703 43.8513 187.469 41.0225 187.294 38.0453L185.298 38.1627C185.475 41.1695 185.711 44.0314 186.006 46.7481L187.994 46.5319ZM187.295 38.0648C187.178 35.078 187.09 32.2385 187.032 29.5463L185.032 29.5897C185.091 32.2948 185.179 35.146 185.297 38.1432L187.295 38.0648ZM187.032 29.568C187.032 29.5627 187.032 29.5575 187.032 29.5522C187.032 29.5469 187.032 29.5417 187.032 29.5364C187.032 29.5311 187.032 29.5259 187.032 29.5206C187.032 29.5153 187.032 29.5101 187.032 29.5048C187.032 29.4996 187.032 29.4943 187.032 29.4891C187.032 29.4838 187.032 29.4786 187.032 29.4733C187.032 29.4681 187.032 29.4628 187.032 29.4576C187.032 29.4523 187.032 29.4471 187.032 29.4418C187.032 29.4366 187.032 29.4314 187.032 29.4261C187.032 29.4209 187.032 29.4156 187.032 29.4104C187.032 29.4052 187.032 29.3999 187.032 29.3947C187.032 29.3895 187.032 29.3842 187.032 29.379C187.032 29.3738 187.032 29.3686 187.032 29.3633C187.032 29.3581 187.032 29.3529 187.032 29.3477C187.032 29.3425 187.032 29.3372 187.032 29.332C187.032 29.3268 187.032 29.3216 187.032 29.3164C187.032 29.3112 187.032 29.3059 187.032 29.3007C187.032 29.2955 187.032 29.2903 187.032 29.2851C187.032 29.2799 187.032 29.2747 187.032 29.2695C187.032 29.2643 187.032 29.2591 187.032 29.2539C187.032 29.2487 187.032 29.2435 187.032 29.2383C187.032 29.2331 187.032 29.2279 187.032 29.2227C187.032 29.2175 187.032 29.2123 187.032 29.2071C187.032 29.202 187.032 29.1968 187.032 29.1916C187.032 29.1864 187.032 29.1812 187.032 29.176C187.032 29.1709 187.032 29.1657 187.032 29.1605C187.032 29.1553 187.032 29.1501 187.032 29.145C187.032 29.1398 187.032 29.1346 187.032 29.1295C187.032 29.1243 187.032 29.1191 187.032 29.1139C187.032 29.1088 187.032 29.1036 187.032 29.0985C187.032 29.0933 187.032 29.0881 187.032 29.083C187.032 29.0778 187.032 29.0727 187.032 29.0675C187.032 29.0623 187.032 29.0572 187.032 29.052C187.032 29.0469 187.032 29.0417 187.032 29.0366C187.032 29.0314 187.032 29.0263 187.032 29.0211C187.032 29.016 187.032 29.0108 187.032 29.0057C187.032 29.0006 187.032 28.9954 187.032 28.9903C187.032 28.9851 187.032 28.98 187.032 28.9749C187.032 28.9697 187.032 28.9646 187.032 28.9595C187.032 28.9543 187.032 28.9492 187.032 28.9441C187.032 28.939 187.032 28.9338 187.032 28.9287C187.032 28.9236 187.032 28.9185 187.032 28.9133C187.032 28.9082 187.032 28.9031 187.032 28.898C187.032 28.8929 187.032 28.8878 187.032 28.8826C187.032 28.8775 187.032 28.8724 187.032 28.8673C187.032 28.8622 187.032 28.8571 187.032 28.852C187.032 28.8469 187.032 28.8418 187.032 28.8367C187.032 28.8316 187.032 28.8265 187.032 28.8214C187.032 28.8163 187.032 28.8112 187.032 28.8061C187.032 28.801 187.032 28.7959 187.032 28.7908C187.032 28.7857 187.032 28.7806 187.032 28.7755C187.032 28.7704 187.032 28.7654 187.032 28.7603C187.032 28.7552 187.032 28.7501 187.032 28.745C187.032 28.7399 187.032 28.7349 187.032 28.7298C187.032 28.7247 187.032 28.7196 187.032 28.7146C187.032 28.7095 187.032 28.7044 187.032 28.6993C187.032 28.6943 187.032 28.6892 187.032 28.6841C187.032 28.6791 187.032 28.674 187.032 28.6689C187.032 28.6639 187.032 28.6588 187.032 28.6538C187.032 28.6487 187.032 28.6436 187.032 28.6386C187.032 28.6335 187.032 28.6285 187.032 28.6234C187.032 28.6184 187.032 28.6133 187.032 28.6083C187.032 28.6032 187.032 28.5982 187.032 28.5931C187.032 28.5881 187.032 28.583 187.032 28.578C187.032 28.573 187.032 28.5679 187.032 28.5629C187.032 28.5578 187.032 28.5528 187.032 28.5478C187.032 28.5427 187.032 28.5377 187.032 28.5327C187.032 28.5276 187.032 28.5226 187.032 28.5176C187.032 28.5126 187.032 28.5075 187.032 28.5025C187.032 28.4975 187.032 28.4925 187.032 28.4874C187.032 28.4824 187.032 28.4774 187.032 28.4724C187.032 28.4674 187.032 28.4624 187.032 28.4573C187.032 28.4523 187.032 28.4473 187.032 28.4423C187.032 28.4373 187.032 28.4323 187.032 28.4273C187.032 28.4223 187.032 28.4173 187.032 28.4123C187.032 28.4073 187.032 28.4023 187.032 28.3973C187.032 28.3923 187.032 28.3873 187.032 28.3823C187.032 28.3773 187.032 28.3723 187.032 28.3673C187.032 28.3623 187.032 28.3573 187.032 28.3523C187.032 28.3473 187.032 28.3424 187.032 28.3374C187.032 28.3324 187.032 28.3274 187.032 28.3224C187.032 28.3174 187.032 28.3125 187.032 28.3075C187.032 28.3025 187.032 28.2975 187.032 28.2926C187.032 28.2876 187.032 28.2826 187.032 28.2776C187.032 28.2727 187.032 28.2677 187.032 28.2627C187.032 28.2578 187.032 28.2528 187.032 28.2478C187.032 28.2429 187.032 28.2379 187.032 28.233C187.032 28.228 187.032 28.223 187.032 28.2181C187.032 28.2131 187.032 28.2082 187.032 28.2032C187.032 28.1983 187.032 28.1933 187.032 28.1884C187.032 28.1834 187.032 28.1785 187.032 28.1735C187.032 28.1686 187.032 28.1636 187.032 28.1587C187.032 28.1538 187.032 28.1488 187.032 28.1439C187.032 28.1389 187.032 28.134 187.032 28.1291C187.032 28.1241 187.032 28.1192 187.032 28.1143C187.032 28.1094 187.032 28.1044 187.032 28.0995C187.032 28.0946 187.032 28.0896 187.032 28.0847C187.032 28.0798 187.032 28.0749 187.032 28.07C187.032 28.065 187.032 28.0601 187.032 28.0552C187.032 28.0503 187.032 28.0454 187.032 28.0405C187.032 28.0355 187.032 28.0306 187.032 28.0257C187.032 28.0208 187.032 28.0159 187.032 28.011C187.032 28.0061 187.032 28.0012 187.032 27.9963C187.032 27.9914 187.032 27.9865 187.032 27.9816C187.032 27.9767 187.032 27.9718 187.032 27.9669C187.032 27.962 187.032 27.9571 187.032 27.9522C187.032 27.9473 187.032 27.9424 187.032 27.9376C187.032 27.9327 187.032 27.9278 187.032 27.9229C187.032 27.918 187.032 27.9131 187.032 27.9082C187.032 27.9034 187.032 27.8985 187.032 27.8936C187.032 27.8887 187.032 27.8839 187.032 27.879C187.032 27.8741 187.032 27.8692 187.032 27.8644C187.032 27.8595 187.032 27.8546 187.032 27.8498C187.032 27.8449 187.032 27.84 187.032 27.8352C187.032 27.8303 187.032 27.8254 187.032 27.8206C187.032 27.8157 187.032 27.8109 187.032 27.806C187.032 27.8012 187.032 27.7963 187.032 27.7915C187.032 27.7866 187.032 27.7818 187.032 27.7769C187.032 27.7721 187.032 27.7672 187.032 27.7624C187.032 27.7575 187.032 27.7527 187.032 27.7478C187.032 27.743 187.032 27.7382 187.032 27.7333C187.032 27.7285 187.032 27.7236 187.032 27.7188C187.032 27.714 187.032 27.7091 187.032 27.7043C187.032 27.6995 187.032 27.6947 187.032 27.6898C187.032 27.685 187.032 27.6802 187.032 27.6754C187.032 27.6705 187.032 27.6657 187.032 27.6609C187.032 27.6561 187.032 27.6513 187.032 27.6464C187.032 27.6416 187.032 27.6368 187.032 27.632C187.032 27.6272 187.032 27.6224 187.032 27.6176C187.032 27.6128 187.032 27.6079 187.032 27.6031C187.032 27.5983 187.032 27.5935 187.032 27.5887C187.032 27.5839 187.032 27.5791 187.032 27.5743C187.032 27.5695 187.032 27.5647 187.032 27.5599C187.032 27.5551 187.032 27.5504 187.032 27.5456C187.032 27.5408 187.032 27.536 187.032 27.5312C187.032 27.5264 187.032 27.5216 187.032 27.5168C187.032 27.5121 187.032 27.5073 187.032 27.5025C187.032 27.4977 187.032 27.4929 187.032 27.4882C187.032 27.4834 187.032 27.4786 187.032 27.4738C187.032 27.4691 187.032 27.4643 187.032 27.4595C187.032 27.4547 187.032 27.45 187.032 27.4452C187.032 27.4404 187.032 27.4357 187.032 27.4309C187.032 27.4262 187.032 27.4214 187.032 27.4166C187.032 27.4119 187.032 27.4071 187.032 27.4024C187.032 27.3976 187.032 27.3929 187.032 27.3881C187.032 27.3834 187.032 27.3786 187.032 27.3739C187.032 27.3691 187.032 27.3644 187.032 27.3596C187.032 27.3549 187.032 27.3501 187.032 27.3454C187.032 27.3407 187.032 27.3359 187.032 27.3312C187.032 27.3264 187.032 27.3217 187.032 27.317C187.032 27.3122 187.032 27.3075 187.032 27.3028C187.032 27.298 187.032 27.2933 187.032 27.2886C187.032 27.2839 187.032 27.2791 187.032 27.2744C187.032 27.2697 187.032 27.265 187.032 27.2603C187.032 27.2555 187.032 27.2508 187.032 27.2461C187.032 27.2414 187.032 27.2367 187.032 27.232C187.032 27.2272 187.032 27.2225 187.032 27.2178C187.032 27.2131 187.032 27.2084 187.032 27.2037C187.032 27.199 187.032 27.1943 187.032 27.1896C187.032 27.1849 187.032 27.1802 187.032 27.1755C187.032 27.1708 187.032 27.1661 187.032 27.1614C187.032 27.1567 187.032 27.152 187.032 27.1473C187.032 27.1426 187.032 27.1379 187.032 27.1333C187.032 27.1286 187.032 27.1239 187.032 27.1192C187.032 27.1145 187.032 27.1098 187.032 27.1052C187.032 27.1005 187.032 27.0958 187.032 27.0911C187.032 27.0864 187.032 27.0818 187.032 27.0771C187.032 27.0724 187.032 27.0678 187.032 27.0631C187.032 27.0584 187.032 27.0538 187.032 27.0491C187.032 27.0444 187.032 27.0398 187.032 27.0351C187.032 27.0304 187.032 27.0258 187.032 27.0211C187.032 27.0165 187.032 27.0118 187.032 27.0071C187.032 27.0025 187.032 26.9978 187.032 26.9932C187.032 26.9885 187.032 26.9839 187.032 26.9792C187.032 26.9746 187.032 26.9699 187.032 26.9653C187.032 26.9607 187.032 26.956 187.032 26.9514C187.032 26.9467 187.032 26.9421 187.032 26.9375C187.032 26.9328 187.032 26.9282 187.032 26.9235C187.032 26.9189 187.032 26.9143 187.032 26.9097C187.032 26.905 187.032 26.9004 187.032 26.8958C187.032 26.8911 187.032 26.8865 187.032 26.8819C187.032 26.8773 187.032 26.8727 187.032 26.868C187.032 26.8634 187.032 26.8588 187.032 26.8542C187.032 26.8496 187.032 26.845 187.032 26.8403C187.032 26.8357 187.032 26.8311 187.032 26.8265C187.032 26.8219 187.032 26.8173 187.032 26.8127C187.032 26.8081 187.032 26.8035 187.032 26.7989C187.032 26.7943 187.032 26.7897 187.032 26.7851C187.032 26.7805 187.032 26.7759 187.032 26.7713C187.032 26.7667 187.032 26.7621 187.032 26.7575C187.032 26.7529 187.032 26.7483 187.032 26.7438C187.032 26.7392 187.032 26.7346 187.032 26.73C187.032 26.7254 187.032 26.7208 187.032 26.7163C187.032 26.7117 187.032 26.7071 187.032 26.7025C187.032 26.6979 187.032 26.6934 187.032 26.6888C187.032 26.6842 187.032 26.6797 187.032 26.6751C187.032 26.6705 187.032 26.6659 187.032 26.6614C187.032 26.6568 187.032 26.6523 187.032 26.6477C187.032 26.6431 187.032 26.6386 187.032 26.634C187.032 26.6295 187.032 26.6249 187.032 26.6203C187.032 26.6158 187.032 26.6112 187.032 26.6067C187.032 26.6021 187.032 26.5976 187.032 26.593C187.032 26.5885 187.032 26.5839 187.032 26.5794C187.032 26.5749 187.032 26.5703 187.032 26.5658C187.032 26.5612 187.032 26.5567 187.032 26.5522C187.032 26.5476 187.032 26.5431 187.032 26.5385C187.032 26.534 187.032 26.5295 187.032 26.525C187.032 26.5204 187.032 26.5159 187.032 26.5114C187.032 26.5068 187.032 26.5023 187.032 26.4978C187.032 26.4933 187.032 26.4888 187.032 26.4842C187.032 26.4797 187.032 26.4752 187.032 26.4707C187.032 26.4662 187.032 26.4617 187.032 26.4571C187.032 26.4526 187.032 26.4481 187.032 26.4436C187.032 26.4391 187.032 26.4346 187.032 26.4301C187.032 26.4256 187.032 26.4211 187.032 26.4166C187.032 26.4121 187.032 26.4076 187.032 26.4031C187.032 26.3986 187.032 26.3941 187.032 26.3896C187.032 26.3851 187.032 26.3806 187.032 26.3761C187.032 26.3716 187.032 26.3671 187.032 26.3627C187.032 26.3582 187.032 26.3537 187.032 26.3492C187.032 26.3447 187.032 26.3402 187.032 26.3358C187.032 26.3313 187.032 26.3268 187.032 26.3223C187.032 26.3179 187.032 26.3134 187.032 26.3089C187.032 26.3044 187.032 26.3 187.032 26.2955C187.032 26.291 187.032 26.2866 187.032 26.2821C187.032 26.2776 187.032 26.2732 187.032 26.2687C187.032 26.2642 187.032 26.2598 187.032 26.2553C187.032 26.2509 187.032 26.2464 187.032 26.242C187.032 26.2375 187.032 26.233 187.032 26.2286C187.032 26.2241 187.032 26.2197 187.032 26.2153C187.032 26.2108 187.032 26.2064 187.032 26.2019C187.032 26.1975 187.032 26.193 187.032 26.1886C187.032 26.1841 187.032 26.1797 187.032 26.1753C187.032 26.1708 187.032 26.1664 187.032 26.162C187.032 26.1575 187.032 26.1531 187.032 26.1487C187.032 26.1442 187.032 26.1398 187.032 26.1354C187.032 26.131 187.032 26.1265 187.032 26.1221C187.032 26.1177 187.032 26.1133 187.032 26.1089C187.032 26.1044 187.032 26.1 187.032 26.0956C187.032 26.0912 187.032 26.0868 187.032 26.0824C187.032 26.078 187.032 26.0735 187.032 26.0691C187.032 26.0647 187.032 26.0603 187.032 26.0559C187.032 26.0515 187.032 26.0471 187.032 26.0427C187.032 26.0383 187.032 26.0339 187.032 26.0295C187.032 26.0251 187.032 26.0207 187.032 26.0163C187.032 26.0119 187.032 26.0075 187.032 26.0032C187.032 25.9988 187.032 25.9944 187.032 25.99C187.032 25.9856 187.032 25.9812 187.032 25.9768C187.032 25.9725 187.032 25.9681 187.032 25.9637C187.032 25.9593 187.032 25.9549 187.032 25.9506C187.032 25.9462 187.032 25.9418 187.032 25.9374C187.032 25.9331 187.032 25.9287 187.032 25.9243C187.032 25.92 187.032 25.9156 187.032 25.9112C187.032 25.9069 187.032 25.9025 187.032 25.8981C187.032 25.8938 187.032 25.8894 187.032 25.8851C187.032 25.8807 187.032 25.8763 187.032 25.872C187.032 25.8676 187.032 25.8633 187.032 25.8589C187.032 25.8546 187.032 25.8502 187.032 25.8459C187.032 25.8415 187.032 25.8372 187.032 25.8329C187.032 25.8285 187.032 25.8242 187.032 25.8198C187.032 25.8155 187.032 25.8112 187.032 25.8068C187.032 25.8025 187.032 25.7981 187.032 25.7938C187.032 25.7895 187.032 25.7852 187.032 25.7808C187.032 25.7765 187.032 25.7722 187.032 25.7678C187.032 25.7635 187.032 25.7592 187.032 25.7549C187.032 25.7505 187.032 25.7462 187.032 25.7419C187.032 25.7376 187.032 25.7333 187.032 25.729C187.032 25.7246 187.032 25.7203 187.032 25.716C187.032 25.7117 187.032 25.7074 187.032 25.7031C187.032 25.6988 187.032 25.6945 187.032 25.6902C187.032 25.6859 187.032 25.6816 187.032 25.6773C187.032 25.673 187.032 25.6687 187.032 25.6644C187.032 25.6601 187.032 25.6558 187.032 25.6515C187.032 25.6472 187.032 25.6429 187.032 25.6386C187.032 25.6343 187.032 25.63 187.032 25.6257C187.032 25.6215 187.032 25.6172 187.032 25.6129C187.032 25.6086 187.032 25.6043 187.032 25.6001C187.032 25.5958 187.032 25.5915 187.032 25.5872C187.032 25.5829 187.032 25.5787 187.032 25.5744C187.032 25.5701 187.032 25.5659 187.032 25.5616C187.032 25.5573 187.032 25.5531 187.032 25.5488C187.032 25.5445 187.032 25.5403 187.032 25.536C187.032 25.5317 187.032 25.5275 187.032 25.5232C187.032 25.519 187.032 25.5147 187.032 25.5105C187.032 25.5062 187.032 25.502 187.032 25.4977C187.032 25.4934 187.032 25.4892 187.032 25.485C187.032 25.4807 187.032 25.4765 187.032 25.4722C187.032 25.468 187.032 25.4637 187.032 25.4595C187.032 25.4553 187.032 25.451 187.032 25.4468C187.032 25.4425 187.032 25.4383 187.032 25.4341C187.032 25.4298 187.032 25.4256 187.032 25.4214C187.032 25.4172 187.032 25.4129 187.032 25.4087C187.032 25.4045 187.032 25.4003 187.032 25.396C187.032 25.3918 187.032 25.3876 187.032 25.3834C187.032 25.3792 187.032 25.3749 187.032 25.3707C187.032 25.3665 187.032 25.3623 187.032 25.3581C187.032 25.3539 187.032 25.3497 187.032 25.3455C187.032 25.3413 187.032 25.337 187.032 25.3328C187.032 25.3286 187.032 25.3244 187.032 25.3202C187.032 25.316 187.032 25.3118 187.032 25.3076C187.032 25.3034 187.032 25.2993 187.032 25.2951C187.032 25.2909 187.032 25.2867 187.032 25.2825C187.032 25.2783 187.032 25.2741 187.032 25.2699C187.032 25.2657 187.032 25.2616 187.032 25.2574C187.032 25.2532 187.032 25.249 187.032 25.2448C187.032 25.2407 187.032 25.2365 187.032 25.2323C187.032 25.2281 187.032 25.224 187.032 25.2198C187.032 25.2156 187.032 25.2114 187.032 25.2073C187.032 25.2031 187.032 25.1989 187.032 25.1948C187.032 25.1906 187.032 25.1864 187.032 25.1823C187.032 25.1781 187.032 25.174 187.032 25.1698C187.032 25.1656 187.032 25.1615 187.032 25.1573C187.032 25.1532 187.032 25.149 187.032 25.1449C187.032 25.1407 187.032 25.1366 187.032 25.1324C187.032 25.1283 187.032 25.1241 187.032 25.12C187.032 25.1159 187.032 25.1117 187.032 25.1076C187.032 25.1034 187.032 25.0993 187.032 25.0952C187.032 25.091 187.032 25.0869 187.032 25.0828C187.032 25.0786 187.032 25.0745 187.032 25.0704C187.032 25.0662 187.032 25.0621 187.032 25.058C187.032 25.0539 187.032 25.0497 187.032 25.0456C187.032 25.0415 187.032 25.0374 187.032 25.0333C187.032 25.0291 187.032 25.025 187.032 25.0209C187.032 25.0168 187.032 25.0127 187.032 25.0086C187.032 25.0045 187.032 25.0004 187.032 24.9963C187.032 24.9921 187.032 24.988 187.032 24.9839C187.032 24.9798 187.032 24.9757 187.032 24.9716C187.032 24.9675 187.032 24.9634 187.032 24.9593C187.032 24.9552 187.032 24.9511 187.032 24.9471C187.032 24.943 187.032 24.9389 187.032 24.9348C187.032 24.9307 187.032 24.9266 187.032 24.9225C187.032 24.9184 187.032 24.9144 187.032 24.9103C187.032 24.9062 187.032 24.9021 187.032 24.898C187.032 24.894 187.032 24.8899 187.032 24.8858C187.032 24.8817 187.032 24.8777 187.032 24.8736C187.032 24.8695 187.032 24.8654 187.032 24.8614C187.032 24.8573 187.032 24.8532 187.032 24.8492C187.032 24.8451 187.032 24.841 187.032 24.837C187.032 24.8329 187.032 24.8289 187.032 24.8248C187.032 24.8208 187.032 24.8167 187.032 24.8126C187.032 24.8086 187.032 24.8045 187.032 24.8005C187.032 24.7964 187.032 24.7924 187.032 24.7883C187.032 24.7843 187.032 24.7803 187.032 24.7762C187.032 24.7722 187.032 24.7681 187.032 24.7641C187.032 24.7601 187.032 24.756 187.032 24.752C187.032 24.7479 187.032 24.7439 187.032 24.7399C187.032 24.7358 187.032 24.7318 187.032 24.7278C187.032 24.7238 187.032 24.7197 187.032 24.7157C187.032 24.7117 187.032 24.7077 187.032 24.7036C187.032 24.6996 187.032 24.6956 187.032 24.6916C187.032 24.6876 187.032 24.6835 187.032 24.6795C187.032 24.6755 187.032 24.6715 187.032 24.6675C187.032 24.6635 187.032 24.6595 187.032 24.6555C187.032 24.6515 187.032 24.6475 187.032 24.6435C187.032 24.6395 187.032 24.6355 187.032 24.6315C187.032 24.6275 187.032 24.6235 187.032 24.6195C187.032 24.6155 187.032 24.6115 187.032 24.6075C187.032 24.6035 187.032 24.5995 187.032 24.5955C187.032 24.5915 187.032 24.5875 187.032 24.5835C187.032 24.5796 187.032 24.5756 187.032 24.5716C187.032 24.5676 187.032 24.5636 187.032 24.5596C187.032 24.5557 187.032 24.5517 187.032 24.5477C187.032 24.5437 187.032 24.5398 187.032 24.5358C187.032 24.5318 187.032 24.5279 187.032 24.5239C187.032 24.5199 187.032 24.516 187.032 24.512C187.032 24.508 187.032 24.5041 187.032 24.5001C187.032 24.4962 187.032 24.4922 187.032 24.4882C187.032 24.4843 187.032 24.4803 187.032 24.4764C187.032 24.4724 187.032 24.4685 187.032 24.4645C187.032 24.4606 187.032 24.4566 187.032 24.4527C187.032 24.4487 187.032 24.4448 187.032 24.4408C187.032 24.4369 187.032 24.433 187.032 24.429C187.032 24.4251 187.032 24.4211 187.032 24.4172C187.032 24.4133 187.032 24.4093 187.032 24.4054C187.032 24.4015 187.032 24.3975 187.032 24.3936C187.032 24.3897 187.032 24.3858 187.032 24.3818C187.032 24.3779 187.032 24.374 187.032 24.3701C187.032 24.3662 187.032 24.3622 187.032 24.3583C187.032 24.3544 187.032 24.3505 187.032 24.3466C187.032 24.3427 187.032 24.3387 187.032 24.3348C187.032 24.3309 187.032 24.327 187.032 24.3231C187.032 24.3192 187.032 24.3153 187.032 24.3114C187.032 24.3075 187.032 24.3036 187.032 24.2997C187.032 24.2958 187.032 24.2919 187.032 24.288C187.032 24.2841 187.032 24.2802 187.032 24.2763C187.032 24.2724 187.032 24.2685 187.032 24.2646C187.032 24.2608 187.032 24.2569 187.032 24.253C187.032 24.2491 187.032 24.2452 187.032 24.2413C187.032 24.2375 187.032 24.2336 187.032 24.2297C187.032 24.2258 187.032 24.2219 187.032 24.2181C187.032 24.2142 187.032 24.2103 187.032 24.2064C187.032 24.2026 187.032 24.1987 187.032 24.1948C187.032 24.191 187.032 24.1871 187.032 24.1832C187.032 24.1794 187.032 24.1755 187.032 24.1717C187.032 24.1678 187.032 24.1639 187.032 24.1601C187.032 24.1562 187.032 24.1524 187.032 24.1485C187.032 24.1447 187.032 24.1408 187.032 24.137C187.032 24.1331 187.032 24.1293 187.032 24.1254C187.032 24.1216 187.032 24.1177 187.032 24.1139C187.032 24.1101 187.032 24.1062 187.032 24.1024C187.032 24.0985 187.032 24.0947 187.032 24.0909C187.032 24.087 187.032 24.0832 187.032 24.0794C187.032 24.0755 187.032 24.0717 187.032 24.0679C187.032 24.064 187.032 24.0602 187.032 24.0564C187.032 24.0526 187.032 24.0487 187.032 24.0449C187.032 24.0411 187.032 24.0373 187.032 24.0335C187.032 24.0297 187.032 24.0258 187.032 24.022C187.032 24.0182 187.032 24.0144 187.032 24.0106C187.032 24.0068 187.032 24.003 187.032 23.9992C187.032 23.9954 187.032 23.9916 187.032 23.9878C187.032 23.9839 187.032 23.9801 187.032 23.9763C187.032 23.9726 187.032 23.9688 187.032 23.965C187.032 23.9612 187.032 23.9574 187.032 23.9536C187.032 23.9498 187.032 23.946 187.032 23.9422C187.032 23.9384 187.032 23.9346 187.032 23.9308C187.032 23.9271 187.032 23.9233 187.032 23.9195C187.032 23.9157 187.032 23.9119 187.032 23.9082C187.032 23.9044 187.032 23.9006 187.032 23.8968C187.032 23.8931 187.032 23.8893 187.032 23.8855C187.032 23.8817 187.032 23.878 187.032 23.8742C187.032 23.8704 187.032 23.8667 187.032 23.8629C187.032 23.8591 187.032 23.8554 187.032 23.8516C187.032 23.8479 187.032 23.8441 187.032 23.8404C187.032 23.8366 187.032 23.8328 187.032 23.8291C187.032 23.8253 187.032 23.8216 187.032 23.8178C187.032 23.8141 187.032 23.8103 187.032 23.8066C187.032 23.8029 187.032 23.7991 187.032 23.7954C187.032 23.7916 187.032 23.7879 187.032 23.7841C187.032 23.7804 187.032 23.7767 187.032 23.7729C187.032 23.7692 187.032 23.7655 187.032 23.7617C187.032 23.758 187.032 23.7543 187.032 23.7505C187.032 23.7468 187.032 23.7431 187.032 23.7394C187.032 23.7356 187.032 23.7319 187.032 23.7282C187.032 23.7245 187.032 23.7208 187.032 23.717C187.032 23.7133 187.032 23.7096 187.032 23.7059C187.032 23.7022 187.032 23.6985 187.032 23.6948C187.032 23.6911 187.032 23.6874 187.032 23.6836C187.032 23.6799 187.032 23.6762 187.032 23.6725C187.032 23.6688 187.032 23.6651 187.032 23.6614C187.032 23.6577 187.032 23.654 187.032 23.6503C187.032 23.6466 187.032 23.643 187.032 23.6393C187.032 23.6356 187.032 23.6319 187.032 23.6282C187.032 23.6245 187.032 23.6208 187.032 23.6171C187.032 23.6134 187.032 23.6098 187.032 23.6061C187.032 23.6024 187.032 23.5987 187.032 23.595C187.032 23.5914 187.032 23.5877 187.032 23.584C187.032 23.5803 187.032 23.5767 187.032 23.573C187.032 23.5693 187.032 23.5657 187.032 23.562C187.032 23.5583 187.032 23.5547 187.032 23.551C187.032 23.5473 187.032 23.5437 187.032 23.54C187.032 23.5364 187.032 23.5327 187.032 23.529C187.032 23.5254 187.032 23.5217 187.032 23.5181C187.032 23.5144 187.032 23.5108 187.032 23.5071C187.032 23.5035 187.032 23.4998 187.032 23.4962C187.032 23.4925 187.032 23.4889 187.032 23.4853C187.032 23.4816 187.032 23.478 187.032 23.4743C187.032 23.4707 187.032 23.4671 187.032 23.4634C187.032 23.4598 187.032 23.4562 187.032 23.4525C187.032 23.4489 187.032 23.4453 187.032 23.4416C187.032 23.438 187.032 23.4344 187.032 23.4308C187.032 23.4271 187.032 23.4235 187.032 23.4199C187.032 23.4163 187.032 23.4127 187.032 23.409C187.032 23.4054 187.032 23.4018 187.032 23.3982C187.032 23.3946 187.032 23.391 187.032 23.3874C187.032 23.3838 187.032 23.3802 187.032 23.3765C187.032 23.3729 187.032 23.3693 187.032 23.3657C187.032 23.3621 187.032 23.3585 187.032 23.3549C187.032 23.3513 187.032 23.3477 187.032 23.3441C187.032 23.3406 187.032 23.337 187.032 23.3334C187.032 23.3298 187.032 23.3262 187.032 23.3226C187.032 23.319 187.032 23.3154 187.032 23.3118C187.032 23.3083 187.032 23.3047 187.032 23.3011C187.032 23.2975 187.032 23.2939 187.032 23.2904C187.032 23.2868 187.032 23.2832 187.032 23.2796C187.032 23.2761 187.032 23.2725 187.032 23.2689C187.032 23.2653 187.032 23.2618 187.032 23.2582C187.032 23.2546 187.032 23.2511 187.032 23.2475C187.032 23.244 187.032 23.2404 187.032 23.2368C187.032 23.2333 187.032 23.2297 187.032 23.2262C187.032 23.2226 187.032 23.219 187.032 23.2155C187.032 23.2119 187.032 23.2084 187.032 23.2048C187.032 23.2013 187.032 23.1978 187.032 23.1942C187.032 23.1907 187.032 23.1871 187.032 23.1836C187.032 23.18 187.032 23.1765 187.032 23.173C187.032 23.1694 187.032 23.1659 187.032 23.1624C187.032 23.1588 187.032 23.1553 187.032 23.1518C187.032 23.1482 187.032 23.1447 187.032 23.1412C187.032 23.1376 187.032 23.1341 187.032 23.1306C187.032 23.1271 187.032 23.1235 187.032 23.12C187.032 23.1165 187.032 23.113 187.032 23.1095C187.032 23.106 187.032 23.1024 187.032 23.0989C187.032 23.0954 187.032 23.0919 187.032 23.0884C187.032 23.0849 187.032 23.0814 187.032 23.0779C187.032 23.0744 187.032 23.0709 187.032 23.0674C187.032 23.0639 187.032 23.0604 187.032 23.0569C187.032 23.0534 187.032 23.0499 187.032 23.0464C187.032 23.0429 187.032 23.0394 187.032 23.0359C187.032 23.0324 187.032 23.0289 187.032 23.0254C187.032 23.0219 187.032 23.0185 187.032 23.015C187.032 23.0115 187.032 23.008 187.032 23.0045C187.032 23.001 187.032 22.9976 187.032 22.9941C187.032 22.9906 187.032 22.9871 187.032 22.9837C187.032 22.9802 187.032 22.9767 187.032 22.9732C187.032 22.9698 187.032 22.9663 187.032 22.9628C187.032 22.9594 187.032 22.9559 187.032 22.9524C187.032 22.949 187.032 22.9455 187.032 22.9421C187.032 22.9386 187.032 22.9351 187.032 22.9317C187.032 22.9282 187.032 22.9248 187.032 22.9213C187.032 22.9179 187.032 22.9144 187.032 22.911C187.032 22.9075 187.032 22.9041 187.032 22.9006C187.032 22.8972 187.032 22.8938 187.032 22.8903C187.032 22.8869 187.032 22.8834 187.032 22.88H185.032C185.032 22.8834 185.032 22.8869 185.032 22.8903C185.032 22.8938 185.032 22.8972 185.032 22.9006C185.032 22.9041 185.032 22.9075 185.032 22.911C185.032 22.9144 185.032 22.9179 185.032 22.9213C185.032 22.9248 185.032 22.9282 185.032 22.9317C185.032 22.9351 185.032 22.9386 185.032 22.9421C185.032 22.9455 185.032 22.949 185.032 22.9524C185.032 22.9559 185.032 22.9594 185.032 22.9628C185.032 22.9663 185.032 22.9698 185.032 22.9732C185.032 22.9767 185.032 22.9802 185.032 22.9837C185.032 22.9871 185.032 22.9906 185.032 22.9941C185.032 22.9976 185.032 23.001 185.032 23.0045C185.032 23.008 185.032 23.0115 185.032 23.015C185.032 23.0185 185.032 23.0219 185.032 23.0254C185.032 23.0289 185.032 23.0324 185.032 23.0359C185.032 23.0394 185.032 23.0429 185.032 23.0464C185.032 23.0499 185.032 23.0534 185.032 23.0569C185.032 23.0604 185.032 23.0639 185.032 23.0674C185.032 23.0709 185.032 23.0744 185.032 23.0779C185.032 23.0814 185.032 23.0849 185.032 23.0884C185.032 23.0919 185.032 23.0954 185.032 23.0989C185.032 23.1024 185.032 23.106 185.032 23.1095C185.032 23.113 185.032 23.1165 185.032 23.12C185.032 23.1235 185.032 23.1271 185.032 23.1306C185.032 23.1341 185.032 23.1376 185.032 23.1412C185.032 23.1447 185.032 23.1482 185.032 23.1518C185.032 23.1553 185.032 23.1588 185.032 23.1624C185.032 23.1659 185.032 23.1694 185.032 23.173C185.032 23.1765 185.032 23.18 185.032 23.1836C185.032 23.1871 185.032 23.1907 185.032 23.1942C185.032 23.1978 185.032 23.2013 185.032 23.2048C185.032 23.2084 185.032 23.2119 185.032 23.2155C185.032 23.219 185.032 23.2226 185.032 23.2262C185.032 23.2297 185.032 23.2333 185.032 23.2368C185.032 23.2404 185.032 23.244 185.032 23.2475C185.032 23.2511 185.032 23.2546 185.032 23.2582C185.032 23.2618 185.032 23.2653 185.032 23.2689C185.032 23.2725 185.032 23.2761 185.032 23.2796C185.032 23.2832 185.032 23.2868 185.032 23.2904C185.032 23.2939 185.032 23.2975 185.032 23.3011C185.032 23.3047 185.032 23.3083 185.032 23.3118C185.032 23.3154 185.032 23.319 185.032 23.3226C185.032 23.3262 185.032 23.3298 185.032 23.3334C185.032 23.337 185.032 23.3406 185.032 23.3441C185.032 23.3477 185.032 23.3513 185.032 23.3549C185.032 23.3585 185.032 23.3621 185.032 23.3657C185.032 23.3693 185.032 23.3729 185.032 23.3765C185.032 23.3802 185.032 23.3838 185.032 23.3874C185.032 23.391 185.032 23.3946 185.032 23.3982C185.032 23.4018 185.032 23.4054 185.032 23.409C185.032 23.4127 185.032 23.4163 185.032 23.4199C185.032 23.4235 185.032 23.4271 185.032 23.4308C185.032 23.4344 185.032 23.438 185.032 23.4416C185.032 23.4453 185.032 23.4489 185.032 23.4525C185.032 23.4562 185.032 23.4598 185.032 23.4634C185.032 23.4671 185.032 23.4707 185.032 23.4743C185.032 23.478 185.032 23.4816 185.032 23.4853C185.032 23.4889 185.032 23.4925 185.032 23.4962C185.032 23.4998 185.032 23.5035 185.032 23.5071C185.032 23.5108 185.032 23.5144 185.032 23.5181C185.032 23.5217 185.032 23.5254 185.032 23.529C185.032 23.5327 185.032 23.5364 185.032 23.54C185.032 23.5437 185.032 23.5473 185.032 23.551C185.032 23.5547 185.032 23.5583 185.032 23.562C185.032 23.5657 185.032 23.5693 185.032 23.573C185.032 23.5767 185.032 23.5803 185.032 23.584C185.032 23.5877 185.032 23.5914 185.032 23.595C185.032 23.5987 185.032 23.6024 185.032 23.6061C185.032 23.6098 185.032 23.6134 185.032 23.6171C185.032 23.6208 185.032 23.6245 185.032 23.6282C185.032 23.6319 185.032 23.6356 185.032 23.6393C185.032 23.643 185.032 23.6466 185.032 23.6503C185.032 23.654 185.032 23.6577 185.032 23.6614C185.032 23.6651 185.032 23.6688 185.032 23.6725C185.032 23.6762 185.032 23.6799 185.032 23.6836C185.032 23.6874 185.032 23.6911 185.032 23.6948C185.032 23.6985 185.032 23.7022 185.032 23.7059C185.032 23.7096 185.032 23.7133 185.032 23.717C185.032 23.7208 185.032 23.7245 185.032 23.7282C185.032 23.7319 185.032 23.7356 185.032 23.7394C185.032 23.7431 185.032 23.7468 185.032 23.7505C185.032 23.7543 185.032 23.758 185.032 23.7617C185.032 23.7655 185.032 23.7692 185.032 23.7729C185.032 23.7767 185.032 23.7804 185.032 23.7841C185.032 23.7879 185.032 23.7916 185.032 23.7954C185.032 23.7991 185.032 23.8029 185.032 23.8066C185.032 23.8103 185.032 23.8141 185.032 23.8178C185.032 23.8216 185.032 23.8253 185.032 23.8291C185.032 23.8328 185.032 23.8366 185.032 23.8404C185.032 23.8441 185.032 23.8479 185.032 23.8516C185.032 23.8554 185.032 23.8591 185.032 23.8629C185.032 23.8667 185.032 23.8704 185.032 23.8742C185.032 23.878 185.032 23.8817 185.032 23.8855C185.032 23.8893 185.032 23.8931 185.032 23.8968C185.032 23.9006 185.032 23.9044 185.032 23.9082C185.032 23.9119 185.032 23.9157 185.032 23.9195C185.032 23.9233 185.032 23.9271 185.032 23.9308C185.032 23.9346 185.032 23.9384 185.032 23.9422C185.032 23.946 185.032 23.9498 185.032 23.9536C185.032 23.9574 185.032 23.9612 185.032 23.965C185.032 23.9688 185.032 23.9726 185.032 23.9763C185.032 23.9801 185.032 23.9839 185.032 23.9878C185.032 23.9916 185.032 23.9954 185.032 23.9992C185.032 24.003 185.032 24.0068 185.032 24.0106C185.032 24.0144 185.032 24.0182 185.032 24.022C185.032 24.0258 185.032 24.0297 185.032 24.0335C185.032 24.0373 185.032 24.0411 185.032 24.0449C185.032 24.0487 185.032 24.0526 185.032 24.0564C185.032 24.0602 185.032 24.064 185.032 24.0679C185.032 24.0717 185.032 24.0755 185.032 24.0794C185.032 24.0832 185.032 24.087 185.032 24.0909C185.032 24.0947 185.032 24.0985 185.032 24.1024C185.032 24.1062 185.032 24.1101 185.032 24.1139C185.032 24.1177 185.032 24.1216 185.032 24.1254C185.032 24.1293 185.032 24.1331 185.032 24.137C185.032 24.1408 185.032 24.1447 185.032 24.1485C185.032 24.1524 185.032 24.1562 185.032 24.1601C185.032 24.1639 185.032 24.1678 185.032 24.1717C185.032 24.1755 185.032 24.1794 185.032 24.1832C185.032 24.1871 185.032 24.191 185.032 24.1948C185.032 24.1987 185.032 24.2026 185.032 24.2064C185.032 24.2103 185.032 24.2142 185.032 24.2181C185.032 24.2219 185.032 24.2258 185.032 24.2297C185.032 24.2336 185.032 24.2375 185.032 24.2413C185.032 24.2452 185.032 24.2491 185.032 24.253C185.032 24.2569 185.032 24.2608 185.032 24.2646C185.032 24.2685 185.032 24.2724 185.032 24.2763C185.032 24.2802 185.032 24.2841 185.032 24.288C185.032 24.2919 185.032 24.2958 185.032 24.2997C185.032 24.3036 185.032 24.3075 185.032 24.3114C185.032 24.3153 185.032 24.3192 185.032 24.3231C185.032 24.327 185.032 24.3309 185.032 24.3348C185.032 24.3387 185.032 24.3427 185.032 24.3466C185.032 24.3505 185.032 24.3544 185.032 24.3583C185.032 24.3622 185.032 24.3662 185.032 24.3701C185.032 24.374 185.032 24.3779 185.032 24.3818C185.032 24.3858 185.032 24.3897 185.032 24.3936C185.032 24.3975 185.032 24.4015 185.032 24.4054C185.032 24.4093 185.032 24.4133 185.032 24.4172C185.032 24.4211 185.032 24.4251 185.032 24.429C185.032 24.433 185.032 24.4369 185.032 24.4408C185.032 24.4448 185.032 24.4487 185.032 24.4527C185.032 24.4566 185.032 24.4606 185.032 24.4645C185.032 24.4685 185.032 24.4724 185.032 24.4764C185.032 24.4803 185.032 24.4843 185.032 24.4882C185.032 24.4922 185.032 24.4962 185.032 24.5001C185.032 24.5041 185.032 24.508 185.032 24.512C185.032 24.516 185.032 24.5199 185.032 24.5239C185.032 24.5279 185.032 24.5318 185.032 24.5358C185.032 24.5398 185.032 24.5437 185.032 24.5477C185.032 24.5517 185.032 24.5557 185.032 24.5596C185.032 24.5636 185.032 24.5676 185.032 24.5716C185.032 24.5756 185.032 24.5796 185.032 24.5835C185.032 24.5875 185.032 24.5915 185.032 24.5955C185.032 24.5995 185.032 24.6035 185.032 24.6075C185.032 24.6115 185.032 24.6155 185.032 24.6195C185.032 24.6235 185.032 24.6275 185.032 24.6315C185.032 24.6355 185.032 24.6395 185.032 24.6435C185.032 24.6475 185.032 24.6515 185.032 24.6555C185.032 24.6595 185.032 24.6635 185.032 24.6675C185.032 24.6715 185.032 24.6755 185.032 24.6795C185.032 24.6835 185.032 24.6876 185.032 24.6916C185.032 24.6956 185.032 24.6996 185.032 24.7036C185.032 24.7077 185.032 24.7117 185.032 24.7157C185.032 24.7197 185.032 24.7238 185.032 24.7278C185.032 24.7318 185.032 24.7358 185.032 24.7399C185.032 24.7439 185.032 24.7479 185.032 24.752C185.032 24.756 185.032 24.7601 185.032 24.7641C185.032 24.7681 185.032 24.7722 185.032 24.7762C185.032 24.7803 185.032 24.7843 185.032 24.7883C185.032 24.7924 185.032 24.7964 185.032 24.8005C185.032 24.8045 185.032 24.8086 185.032 24.8126C185.032 24.8167 185.032 24.8208 185.032 24.8248C185.032 24.8289 185.032 24.8329 185.032 24.837C185.032 24.841 185.032 24.8451 185.032 24.8492C185.032 24.8532 185.032 24.8573 185.032 24.8614C185.032 24.8654 185.032 24.8695 185.032 24.8736C185.032 24.8777 185.032 24.8817 185.032 24.8858C185.032 24.8899 185.032 24.894 185.032 24.898C185.032 24.9021 185.032 24.9062 185.032 24.9103C185.032 24.9144 185.032 24.9184 185.032 24.9225C185.032 24.9266 185.032 24.9307 185.032 24.9348C185.032 24.9389 185.032 24.943 185.032 24.9471C185.032 24.9511 185.032 24.9552 185.032 24.9593C185.032 24.9634 185.032 24.9675 185.032 24.9716C185.032 24.9757 185.032 24.9798 185.032 24.9839C185.032 24.988 185.032 24.9921 185.032 24.9963C185.032 25.0004 185.032 25.0045 185.032 25.0086C185.032 25.0127 185.032 25.0168 185.032 25.0209C185.032 25.025 185.032 25.0291 185.032 25.0333C185.032 25.0374 185.032 25.0415 185.032 25.0456C185.032 25.0497 185.032 25.0539 185.032 25.058C185.032 25.0621 185.032 25.0662 185.032 25.0704C185.032 25.0745 185.032 25.0786 185.032 25.0828C185.032 25.0869 185.032 25.091 185.032 25.0952C185.032 25.0993 185.032 25.1034 185.032 25.1076C185.032 25.1117 185.032 25.1159 185.032 25.12C185.032 25.1241 185.032 25.1283 185.032 25.1324C185.032 25.1366 185.032 25.1407 185.032 25.1449C185.032 25.149 185.032 25.1532 185.032 25.1573C185.032 25.1615 185.032 25.1656 185.032 25.1698C185.032 25.174 185.032 25.1781 185.032 25.1823C185.032 25.1864 185.032 25.1906 185.032 25.1948C185.032 25.1989 185.032 25.2031 185.032 25.2073C185.032 25.2114 185.032 25.2156 185.032 25.2198C185.032 25.224 185.032 25.2281 185.032 25.2323C185.032 25.2365 185.032 25.2407 185.032 25.2448C185.032 25.249 185.032 25.2532 185.032 25.2574C185.032 25.2616 185.032 25.2657 185.032 25.2699C185.032 25.2741 185.032 25.2783 185.032 25.2825C185.032 25.2867 185.032 25.2909 185.032 25.2951C185.032 25.2993 185.032 25.3034 185.032 25.3076C185.032 25.3118 185.032 25.316 185.032 25.3202C185.032 25.3244 185.032 25.3286 185.032 25.3328C185.032 25.337 185.032 25.3413 185.032 25.3455C185.032 25.3497 185.032 25.3539 185.032 25.3581C185.032 25.3623 185.032 25.3665 185.032 25.3707C185.032 25.3749 185.032 25.3792 185.032 25.3834C185.032 25.3876 185.032 25.3918 185.032 25.396C185.032 25.4003 185.032 25.4045 185.032 25.4087C185.032 25.4129 185.032 25.4172 185.032 25.4214C185.032 25.4256 185.032 25.4298 185.032 25.4341C185.032 25.4383 185.032 25.4425 185.032 25.4468C185.032 25.451 185.032 25.4553 185.032 25.4595C185.032 25.4637 185.032 25.468 185.032 25.4722C185.032 25.4765 185.032 25.4807 185.032 25.485C185.032 25.4892 185.032 25.4934 185.032 25.4977C185.032 25.502 185.032 25.5062 185.032 25.5105C185.032 25.5147 185.032 25.519 185.032 25.5232C185.032 25.5275 185.032 25.5317 185.032 25.536C185.032 25.5403 185.032 25.5445 185.032 25.5488C185.032 25.5531 185.032 25.5573 185.032 25.5616C185.032 25.5659 185.032 25.5701 185.032 25.5744C185.032 25.5787 185.032 25.5829 185.032 25.5872C185.032 25.5915 185.032 25.5958 185.032 25.6001C185.032 25.6043 185.032 25.6086 185.032 25.6129C185.032 25.6172 185.032 25.6215 185.032 25.6257C185.032 25.63 185.032 25.6343 185.032 25.6386C185.032 25.6429 185.032 25.6472 185.032 25.6515C185.032 25.6558 185.032 25.6601 185.032 25.6644C185.032 25.6687 185.032 25.673 185.032 25.6773C185.032 25.6816 185.032 25.6859 185.032 25.6902C185.032 25.6945 185.032 25.6988 185.032 25.7031C185.032 25.7074 185.032 25.7117 185.032 25.716C185.032 25.7203 185.032 25.7246 185.032 25.729C185.032 25.7333 185.032 25.7376 185.032 25.7419C185.032 25.7462 185.032 25.7505 185.032 25.7549C185.032 25.7592 185.032 25.7635 185.032 25.7678C185.032 25.7722 185.032 25.7765 185.032 25.7808C185.032 25.7852 185.032 25.7895 185.032 25.7938C185.032 25.7981 185.032 25.8025 185.032 25.8068C185.032 25.8112 185.032 25.8155 185.032 25.8198C185.032 25.8242 185.032 25.8285 185.032 25.8329C185.032 25.8372 185.032 25.8415 185.032 25.8459C185.032 25.8502 185.032 25.8546 185.032 25.8589C185.032 25.8633 185.032 25.8676 185.032 25.872C185.032 25.8763 185.032 25.8807 185.032 25.8851C185.032 25.8894 185.032 25.8938 185.032 25.8981C185.032 25.9025 185.032 25.9069 185.032 25.9112C185.032 25.9156 185.032 25.92 185.032 25.9243C185.032 25.9287 185.032 25.9331 185.032 25.9374C185.032 25.9418 185.032 25.9462 185.032 25.9506C185.032 25.9549 185.032 25.9593 185.032 25.9637C185.032 25.9681 185.032 25.9725 185.032 25.9768C185.032 25.9812 185.032 25.9856 185.032 25.99C185.032 25.9944 185.032 25.9988 185.032 26.0032C185.032 26.0075 185.032 26.0119 185.032 26.0163C185.032 26.0207 185.032 26.0251 185.032 26.0295C185.032 26.0339 185.032 26.0383 185.032 26.0427C185.032 26.0471 185.032 26.0515 185.032 26.0559C185.032 26.0603 185.032 26.0647 185.032 26.0691C185.032 26.0735 185.032 26.078 185.032 26.0824C185.032 26.0868 185.032 26.0912 185.032 26.0956C185.032 26.1 185.032 26.1044 185.032 26.1089C185.032 26.1133 185.032 26.1177 185.032 26.1221C185.032 26.1265 185.032 26.131 185.032 26.1354C185.032 26.1398 185.032 26.1442 185.032 26.1487C185.032 26.1531 185.032 26.1575 185.032 26.162C185.032 26.1664 185.032 26.1708 185.032 26.1753C185.032 26.1797 185.032 26.1841 185.032 26.1886C185.032 26.193 185.032 26.1975 185.032 26.2019C185.032 26.2064 185.032 26.2108 185.032 26.2153C185.032 26.2197 185.032 26.2241 185.032 26.2286C185.032 26.233 185.032 26.2375 185.032 26.242C185.032 26.2464 185.032 26.2509 185.032 26.2553C185.032 26.2598 185.032 26.2642 185.032 26.2687C185.032 26.2732 185.032 26.2776 185.032 26.2821C185.032 26.2866 185.032 26.291 185.032 26.2955C185.032 26.3 185.032 26.3044 185.032 26.3089C185.032 26.3134 185.032 26.3179 185.032 26.3223C185.032 26.3268 185.032 26.3313 185.032 26.3358C185.032 26.3402 185.032 26.3447 185.032 26.3492C185.032 26.3537 185.032 26.3582 185.032 26.3627C185.032 26.3671 185.032 26.3716 185.032 26.3761C185.032 26.3806 185.032 26.3851 185.032 26.3896C185.032 26.3941 185.032 26.3986 185.032 26.4031C185.032 26.4076 185.032 26.4121 185.032 26.4166C185.032 26.4211 185.032 26.4256 185.032 26.4301C185.032 26.4346 185.032 26.4391 185.032 26.4436C185.032 26.4481 185.032 26.4526 185.032 26.4571C185.032 26.4617 185.032 26.4662 185.032 26.4707C185.032 26.4752 185.032 26.4797 185.032 26.4842C185.032 26.4888 185.032 26.4933 185.032 26.4978C185.032 26.5023 185.032 26.5068 185.032 26.5114C185.032 26.5159 185.032 26.5204 185.032 26.525C185.032 26.5295 185.032 26.534 185.032 26.5385C185.032 26.5431 185.032 26.5476 185.032 26.5522C185.032 26.5567 185.032 26.5612 185.032 26.5658C185.032 26.5703 185.032 26.5749 185.032 26.5794C185.032 26.5839 185.032 26.5885 185.032 26.593C185.032 26.5976 185.032 26.6021 185.032 26.6067C185.032 26.6112 185.032 26.6158 185.032 26.6203C185.032 26.6249 185.032 26.6295 185.032 26.634C185.032 26.6386 185.032 26.6431 185.032 26.6477C185.032 26.6523 185.032 26.6568 185.032 26.6614C185.032 26.6659 185.032 26.6705 185.032 26.6751C185.032 26.6797 185.032 26.6842 185.032 26.6888C185.032 26.6934 185.032 26.6979 185.032 26.7025C185.032 26.7071 185.032 26.7117 185.032 26.7163C185.032 26.7208 185.032 26.7254 185.032 26.73C185.032 26.7346 185.032 26.7392 185.032 26.7438C185.032 26.7483 185.032 26.7529 185.032 26.7575C185.032 26.7621 185.032 26.7667 185.032 26.7713C185.032 26.7759 185.032 26.7805 185.032 26.7851C185.032 26.7897 185.032 26.7943 185.032 26.7989C185.032 26.8035 185.032 26.8081 185.032 26.8127C185.032 26.8173 185.032 26.8219 185.032 26.8265C185.032 26.8311 185.032 26.8357 185.032 26.8403C185.032 26.845 185.032 26.8496 185.032 26.8542C185.032 26.8588 185.032 26.8634 185.032 26.868C185.032 26.8727 185.032 26.8773 185.032 26.8819C185.032 26.8865 185.032 26.8911 185.032 26.8958C185.032 26.9004 185.032 26.905 185.032 26.9097C185.032 26.9143 185.032 26.9189 185.032 26.9235C185.032 26.9282 185.032 26.9328 185.032 26.9375C185.032 26.9421 185.032 26.9467 185.032 26.9514C185.032 26.956 185.032 26.9607 185.032 26.9653C185.032 26.9699 185.032 26.9746 185.032 26.9792C185.032 26.9839 185.032 26.9885 185.032 26.9932C185.032 26.9978 185.032 27.0025 185.032 27.0071C185.032 27.0118 185.032 27.0165 185.032 27.0211C185.032 27.0258 185.032 27.0304 185.032 27.0351C185.032 27.0398 185.032 27.0444 185.032 27.0491C185.032 27.0538 185.032 27.0584 185.032 27.0631C185.032 27.0678 185.032 27.0724 185.032 27.0771C185.032 27.0818 185.032 27.0864 185.032 27.0911C185.032 27.0958 185.032 27.1005 185.032 27.1052C185.032 27.1098 185.032 27.1145 185.032 27.1192C185.032 27.1239 185.032 27.1286 185.032 27.1333C185.032 27.1379 185.032 27.1426 185.032 27.1473C185.032 27.152 185.032 27.1567 185.032 27.1614C185.032 27.1661 185.032 27.1708 185.032 27.1755C185.032 27.1802 185.032 27.1849 185.032 27.1896C185.032 27.1943 185.032 27.199 185.032 27.2037C185.032 27.2084 185.032 27.2131 185.032 27.2178C185.032 27.2225 185.032 27.2272 185.032 27.232C185.032 27.2367 185.032 27.2414 185.032 27.2461C185.032 27.2508 185.032 27.2555 185.032 27.2603C185.032 27.265 185.032 27.2697 185.032 27.2744C185.032 27.2791 185.032 27.2839 185.032 27.2886C185.032 27.2933 185.032 27.298 185.032 27.3028C185.032 27.3075 185.032 27.3122 185.032 27.317C185.032 27.3217 185.032 27.3264 185.032 27.3312C185.032 27.3359 185.032 27.3407 185.032 27.3454C185.032 27.3501 185.032 27.3549 185.032 27.3596C185.032 27.3644 185.032 27.3691 185.032 27.3739C185.032 27.3786 185.032 27.3834 185.032 27.3881C185.032 27.3929 185.032 27.3976 185.032 27.4024C185.032 27.4071 185.032 27.4119 185.032 27.4166C185.032 27.4214 185.032 27.4262 185.032 27.4309C185.032 27.4357 185.032 27.4404 185.032 27.4452C185.032 27.45 185.032 27.4547 185.032 27.4595C185.032 27.4643 185.032 27.4691 185.032 27.4738C185.032 27.4786 185.032 27.4834 185.032 27.4882C185.032 27.4929 185.032 27.4977 185.032 27.5025C185.032 27.5073 185.032 27.5121 185.032 27.5168C185.032 27.5216 185.032 27.5264 185.032 27.5312C185.032 27.536 185.032 27.5408 185.032 27.5456C185.032 27.5504 185.032 27.5551 185.032 27.5599C185.032 27.5647 185.032 27.5695 185.032 27.5743C185.032 27.5791 185.032 27.5839 185.032 27.5887C185.032 27.5935 185.032 27.5983 185.032 27.6031C185.032 27.6079 185.032 27.6128 185.032 27.6176C185.032 27.6224 185.032 27.6272 185.032 27.632C185.032 27.6368 185.032 27.6416 185.032 27.6464C185.032 27.6513 185.032 27.6561 185.032 27.6609C185.032 27.6657 185.032 27.6705 185.032 27.6754C185.032 27.6802 185.032 27.685 185.032 27.6898C185.032 27.6947 185.032 27.6995 185.032 27.7043C185.032 27.7091 185.032 27.714 185.032 27.7188C185.032 27.7236 185.032 27.7285 185.032 27.7333C185.032 27.7382 185.032 27.743 185.032 27.7478C185.032 27.7527 185.032 27.7575 185.032 27.7624C185.032 27.7672 185.032 27.7721 185.032 27.7769C185.032 27.7818 185.032 27.7866 185.032 27.7915C185.032 27.7963 185.032 27.8012 185.032 27.806C185.032 27.8109 185.032 27.8157 185.032 27.8206C185.032 27.8254 185.032 27.8303 185.032 27.8352C185.032 27.84 185.032 27.8449 185.032 27.8498C185.032 27.8546 185.032 27.8595 185.032 27.8644C185.032 27.8692 185.032 27.8741 185.032 27.879C185.032 27.8839 185.032 27.8887 185.032 27.8936C185.032 27.8985 185.032 27.9034 185.032 27.9082C185.032 27.9131 185.032 27.918 185.032 27.9229C185.032 27.9278 185.032 27.9327 185.032 27.9376C185.032 27.9424 185.032 27.9473 185.032 27.9522C185.032 27.9571 185.032 27.962 185.032 27.9669C185.032 27.9718 185.032 27.9767 185.032 27.9816C185.032 27.9865 185.032 27.9914 185.032 27.9963C185.032 28.0012 185.032 28.0061 185.032 28.011C185.032 28.0159 185.032 28.0208 185.032 28.0257C185.032 28.0306 185.032 28.0355 185.032 28.0405C185.032 28.0454 185.032 28.0503 185.032 28.0552C185.032 28.0601 185.032 28.065 185.032 28.07C185.032 28.0749 185.032 28.0798 185.032 28.0847C185.032 28.0896 185.032 28.0946 185.032 28.0995C185.032 28.1044 185.032 28.1094 185.032 28.1143C185.032 28.1192 185.032 28.1241 185.032 28.1291C185.032 28.134 185.032 28.1389 185.032 28.1439C185.032 28.1488 185.032 28.1538 185.032 28.1587C185.032 28.1636 185.032 28.1686 185.032 28.1735C185.032 28.1785 185.032 28.1834 185.032 28.1884C185.032 28.1933 185.032 28.1983 185.032 28.2032C185.032 28.2082 185.032 28.2131 185.032 28.2181C185.032 28.223 185.032 28.228 185.032 28.233C185.032 28.2379 185.032 28.2429 185.032 28.2478C185.032 28.2528 185.032 28.2578 185.032 28.2627C185.032 28.2677 185.032 28.2727 185.032 28.2776C185.032 28.2826 185.032 28.2876 185.032 28.2926C185.032 28.2975 185.032 28.3025 185.032 28.3075C185.032 28.3125 185.032 28.3174 185.032 28.3224C185.032 28.3274 185.032 28.3324 185.032 28.3374C185.032 28.3424 185.032 28.3473 185.032 28.3523C185.032 28.3573 185.032 28.3623 185.032 28.3673C185.032 28.3723 185.032 28.3773 185.032 28.3823C185.032 28.3873 185.032 28.3923 185.032 28.3973C185.032 28.4023 185.032 28.4073 185.032 28.4123C185.032 28.4173 185.032 28.4223 185.032 28.4273C185.032 28.4323 185.032 28.4373 185.032 28.4423C185.032 28.4473 185.032 28.4523 185.032 28.4573C185.032 28.4624 185.032 28.4674 185.032 28.4724C185.032 28.4774 185.032 28.4824 185.032 28.4874C185.032 28.4925 185.032 28.4975 185.032 28.5025C185.032 28.5075 185.032 28.5126 185.032 28.5176C185.032 28.5226 185.032 28.5276 185.032 28.5327C185.032 28.5377 185.032 28.5427 185.032 28.5478C185.032 28.5528 185.032 28.5578 185.032 28.5629C185.032 28.5679 185.032 28.573 185.032 28.578C185.032 28.583 185.032 28.5881 185.032 28.5931C185.032 28.5982 185.032 28.6032 185.032 28.6083C185.032 28.6133 185.032 28.6184 185.032 28.6234C185.032 28.6285 185.032 28.6335 185.032 28.6386C185.032 28.6436 185.032 28.6487 185.032 28.6538C185.032 28.6588 185.032 28.6639 185.032 28.6689C185.032 28.674 185.032 28.6791 185.032 28.6841C185.032 28.6892 185.032 28.6943 185.032 28.6993C185.032 28.7044 185.032 28.7095 185.032 28.7146C185.032 28.7196 185.032 28.7247 185.032 28.7298C185.032 28.7349 185.032 28.7399 185.032 28.745C185.032 28.7501 185.032 28.7552 185.032 28.7603C185.032 28.7654 185.032 28.7704 185.032 28.7755C185.032 28.7806 185.032 28.7857 185.032 28.7908C185.032 28.7959 185.032 28.801 185.032 28.8061C185.032 28.8112 185.032 28.8163 185.032 28.8214C185.032 28.8265 185.032 28.8316 185.032 28.8367C185.032 28.8418 185.032 28.8469 185.032 28.852C185.032 28.8571 185.032 28.8622 185.032 28.8673C185.032 28.8724 185.032 28.8775 185.032 28.8826C185.032 28.8878 185.032 28.8929 185.032 28.898C185.032 28.9031 185.032 28.9082 185.032 28.9133C185.032 28.9185 185.032 28.9236 185.032 28.9287C185.032 28.9338 185.032 28.939 185.032 28.9441C185.032 28.9492 185.032 28.9543 185.032 28.9595C185.032 28.9646 185.032 28.9697 185.032 28.9749C185.032 28.98 185.032 28.9851 185.032 28.9903C185.032 28.9954 185.032 29.0006 185.032 29.0057C185.032 29.0108 185.032 29.016 185.032 29.0211C185.032 29.0263 185.032 29.0314 185.032 29.0366C185.032 29.0417 185.032 29.0469 185.032 29.052C185.032 29.0572 185.032 29.0623 185.032 29.0675C185.032 29.0727 185.032 29.0778 185.032 29.083C185.032 29.0881 185.032 29.0933 185.032 29.0985C185.032 29.1036 185.032 29.1088 185.032 29.1139C185.032 29.1191 185.032 29.1243 185.032 29.1295C185.032 29.1346 185.032 29.1398 185.032 29.145C185.032 29.1501 185.032 29.1553 185.032 29.1605C185.032 29.1657 185.032 29.1709 185.032 29.176C185.032 29.1812 185.032 29.1864 185.032 29.1916C185.032 29.1968 185.032 29.202 185.032 29.2071C185.032 29.2123 185.032 29.2175 185.032 29.2227C185.032 29.2279 185.032 29.2331 185.032 29.2383C185.032 29.2435 185.032 29.2487 185.032 29.2539C185.032 29.2591 185.032 29.2643 185.032 29.2695C185.032 29.2747 185.032 29.2799 185.032 29.2851C185.032 29.2903 185.032 29.2955 185.032 29.3007C185.032 29.3059 185.032 29.3112 185.032 29.3164C185.032 29.3216 185.032 29.3268 185.032 29.332C185.032 29.3372 185.032 29.3425 185.032 29.3477C185.032 29.3529 185.032 29.3581 185.032 29.3633C185.032 29.3686 185.032 29.3738 185.032 29.379C185.032 29.3842 185.032 29.3895 185.032 29.3947C185.032 29.3999 185.032 29.4052 185.032 29.4104C185.032 29.4156 185.032 29.4209 185.032 29.4261C185.032 29.4314 185.032 29.4366 185.032 29.4418C185.032 29.4471 185.032 29.4523 185.032 29.4576C185.032 29.4628 185.032 29.4681 185.032 29.4733C185.032 29.4786 185.032 29.4838 185.032 29.4891C185.032 29.4943 185.032 29.4996 185.032 29.5048C185.032 29.5101 185.032 29.5153 185.032 29.5206C185.032 29.5259 185.032 29.5311 185.032 29.5364C185.032 29.5417 185.032 29.5469 185.032 29.5522C185.032 29.5575 185.032 29.5627 185.032 29.568H187.032ZM187.032 22.88C187.032 21.6182 186.972 20.1274 186.854 18.4112L184.858 18.5488C184.975 20.2352 185.032 21.6778 185.032 22.88H187.032ZM186.854 18.4112C186.734 16.6834 186.555 15.123 186.313 13.7327L184.343 14.0753C184.57 15.3837 184.743 16.8739 184.858 18.5488L186.854 18.4112ZM185.315 14.9039L198.867 15.0799L198.893 13.0801L185.341 12.9041L185.315 14.9039ZM242.108 16.7397C243.699 18.6713 245.247 21.0468 246.749 23.8767L248.515 22.9393C246.966 20.0198 245.347 17.526 243.652 15.4683L242.108 16.7397ZM246.749 23.8767C248.255 26.7153 249.647 29.7606 250.925 33.0136L252.787 32.2823C251.483 28.9647 250.06 25.85 248.515 22.9393L246.749 23.8767ZM250.925 33.0136C252.204 36.2693 253.338 39.613 254.327 43.0449L256.249 42.4911C255.243 39.0004 254.089 35.5974 252.787 32.2823L250.925 33.0136ZM254.328 43.0493C255.316 46.4194 256.1 49.7282 256.68 52.9758L258.648 52.6242C258.055 49.3012 257.255 45.9219 256.248 42.4867L254.328 43.0493ZM256.683 52.9961C257.322 56.1884 257.726 59.1066 257.898 61.7531L259.894 61.6229C259.714 58.872 259.297 55.8649 258.645 52.6039L256.683 52.9961ZM258.536 60.7552L246.92 65.2432L247.64 67.1088L259.256 62.6208L258.536 60.7552ZM248.277 66.0943C247.98 62.478 247.447 58.5442 246.68 54.2943L244.712 54.6497C245.47 58.8478 245.993 62.7167 246.283 66.2577L248.277 66.0943ZM246.68 54.2943C245.91 50.0314 244.875 45.741 243.573 41.4234L241.659 42.0005C242.939 46.2483 243.956 50.4646 244.712 54.6497L246.68 54.2943ZM243.573 41.4234C242.269 37.095 240.696 32.9993 238.855 29.1375L237.049 29.9985C238.845 33.7634 240.382 37.7637 241.659 42.0005L243.573 41.4234ZM238.86 29.1489C237.066 25.2617 234.934 21.8933 232.458 19.0546L230.95 20.3694C233.285 23.0453 235.318 26.2476 237.044 29.9871L238.86 29.1489ZM232.011 20.6636L243.187 17.0556L242.573 15.1524L231.397 18.7604L232.011 20.6636ZM316.008 16.72L316.999 16.8504L317.144 15.753L316.037 15.7204L316.008 16.72ZM313.72 30.976L312.737 30.7931L312.737 30.7931L313.72 30.976ZM309.936 46.288L308.98 45.9947L308.977 46.0033L308.975 46.012L309.936 46.288ZM303.952 61.6L303.07 61.1288L303.07 61.1288L303.952 61.6ZM296.384 71.544L297.031 72.3068L297.032 72.3055L296.384 71.544ZM278.52 71.72L277.883 72.491L277.892 72.4985L277.901 72.5057L278.52 71.72ZM272.008 62.568L271.082 62.9467L271.087 62.9585L272.008 62.568ZM272.712 34.936L273.622 35.3498L273.622 35.3498L272.712 34.936ZM281.248 22.968L281.937 23.6924L281.938 23.6921L281.248 22.968ZM294.096 14.696L293.721 13.769L293.717 13.7706L294.096 14.696ZM324.72 14.344L324.344 15.2707L324.349 15.2725L324.72 14.344ZM335.984 21.648L335.277 22.3551L335.277 22.3551L335.984 21.648ZM343.112 32.56L342.182 32.9269L342.182 32.9269L343.112 32.56ZM341.792 62.568L342.68 63.028L342.68 63.028L341.792 62.568ZM330.528 74.624L329.992 73.7799L329.987 73.7828L330.528 74.624ZM312.048 81.136L311.202 81.6692L311.554 82.227L312.205 82.1236L312.048 81.136ZM305.448 70.664L305.345 69.6693L303.743 69.835L304.602 71.1972L305.448 70.664ZM313.632 69.256L313.389 68.2859L313.389 68.2859L313.632 69.256ZM321.464 66.264L321.937 67.1452L321.944 67.1411L321.464 66.264ZM327.888 61.336L328.617 62.0207L328.622 62.0152L328.627 62.0097L327.888 61.336ZM332.112 54.384L331.184 54.0126L331.18 54.0216L331.177 54.0306L332.112 54.384ZM327.448 28.688L326.721 29.3753L326.731 29.3851L327.448 28.688ZM319.968 23.76L319.597 24.6885L319.605 24.6917L319.613 24.6948L319.968 23.76ZM297.44 24.552L297.857 25.4609L297.869 25.4551L297.44 24.552ZM288.376 30.976L289.107 31.6583L289.107 31.6583L288.376 30.976ZM282.744 39.512L281.823 39.1224L281.82 39.1299L281.817 39.1375L282.744 39.512ZM281.952 55.616L281.009 55.9488L281.012 55.9577L281.952 55.616ZM284.504 60.016L283.797 60.7231L283.818 60.7439L283.84 60.7634L284.504 60.016ZM291.456 59.576L290.733 58.8855L290.732 58.8863L291.456 59.576ZM295.064 53.768L295.974 54.1818L295.974 54.1818L295.064 53.768ZM298.584 44L297.631 43.6957L297.629 43.7048L297.626 43.714L298.584 44ZM302.016 30.448L301.035 30.2565L301.035 30.2565L302.016 30.448ZM304.04 16.368L304.069 15.3684L303.128 15.3407L303.044 16.2786L304.04 16.368ZM315.017 16.5895C314.432 21.0284 313.673 25.7628 312.737 30.7931L314.703 31.1589C315.645 26.0985 316.41 21.3289 316.999 16.8504L315.017 16.5895ZM312.737 30.7931C311.806 35.7993 310.553 40.8664 308.98 45.9947L310.892 46.5813C312.487 41.3843 313.757 36.2434 314.703 31.1589L312.737 30.7931ZM308.975 46.012C307.288 51.8868 305.317 56.9222 303.07 61.1288L304.834 62.0712C307.163 57.7124 309.181 52.5398 310.897 46.564L308.975 46.012ZM303.07 61.1288C300.822 65.3363 298.371 68.5396 295.736 70.7825L297.032 72.3055C299.911 69.8551 302.506 66.429 304.834 62.0712L303.07 61.1288ZM295.737 70.7812C293.201 72.9319 290.462 73.976 287.496 73.976V75.976C290.983 75.976 294.17 74.7321 297.031 72.3068L295.737 70.7812ZM287.496 73.976C284.514 73.976 281.736 72.9791 279.139 70.9343L277.901 72.5057C280.819 74.8022 284.025 75.976 287.496 75.976V73.976ZM279.157 70.949C276.605 68.8406 274.521 65.9313 272.929 62.1774L271.087 62.9585C272.78 66.9487 275.038 70.1408 277.883 72.491L279.157 70.949ZM272.934 62.1894C271.407 58.4569 270.632 54.1889 270.632 49.368H268.632C268.632 54.4031 269.441 58.9351 271.082 62.9466L272.934 62.1894ZM270.632 49.368C270.632 44.4026 271.63 39.7334 273.622 35.3498L271.802 34.5222C269.688 39.1732 268.632 44.1254 268.632 49.368H270.632ZM273.622 35.3498C275.622 30.9506 278.392 27.0664 281.937 23.6924L280.559 22.2436C276.83 25.7922 273.909 29.8867 271.802 34.5222L273.622 35.3498ZM281.938 23.6921C285.541 20.2606 289.717 17.5704 294.475 15.6214L293.717 13.7706C288.736 15.811 284.347 18.6354 280.558 22.2439L281.938 23.6921ZM294.471 15.6229C299.272 13.6798 304.453 12.704 310.024 12.704V10.704C304.214 10.704 298.776 11.7228 293.721 13.7691L294.471 15.6229ZM310.024 12.704C315.372 12.704 320.14 13.5664 324.344 15.2707L325.096 13.4173C320.617 11.6016 315.588 10.704 310.024 10.704V12.704ZM324.349 15.2725C328.633 16.9861 332.271 19.3488 335.277 22.3551L336.691 20.9409C333.479 17.7285 329.607 15.2219 325.091 13.4155L324.349 15.2725ZM335.277 22.3551C338.288 25.3657 340.588 28.8866 342.182 32.9269L344.042 32.1931C342.35 27.9027 339.899 24.1489 336.691 20.9409L335.277 22.3551ZM342.182 32.9269C343.775 36.9669 344.576 41.3295 344.576 46.024H346.576C346.576 41.0972 345.734 36.4837 344.042 32.1931L342.182 32.9269ZM344.576 46.024C344.576 52.0439 343.344 57.3975 340.904 62.108L342.68 63.028C345.285 57.9998 346.576 52.3241 346.576 46.024H344.576ZM340.904 62.108C338.469 66.8084 334.841 70.6991 329.992 73.7799L331.064 75.4681C336.188 72.2129 340.07 68.0662 342.68 63.028L340.904 62.108ZM329.987 73.7828C325.203 76.8582 319.183 78.9909 311.891 80.1484L312.205 82.1236C319.697 80.9344 325.997 78.7257 331.069 75.4652L329.987 73.7828ZM312.894 80.6028L306.294 70.1308L304.602 71.1972L311.202 81.6692L312.894 80.6028ZM305.551 71.6587C307.271 71.4808 308.793 71.2722 310.115 71.0319L309.757 69.0641C308.498 69.2931 307.028 69.4952 305.345 69.6693L305.551 71.6587ZM310.115 71.0319C311.425 70.7936 312.678 70.5252 313.875 70.2261L313.389 68.2859C312.239 68.5735 311.028 68.833 309.757 69.0641L310.115 71.0319ZM313.875 70.2261C316.766 69.5034 319.454 68.4773 321.937 67.1452L320.991 65.3828C318.663 66.6321 316.13 67.6006 313.389 68.2859L313.875 70.2261ZM321.944 67.1411C324.495 65.744 326.722 64.0378 328.617 62.0207L327.159 60.6513C325.417 62.5062 323.361 64.0853 320.984 65.3869L321.944 67.1411ZM328.627 62.0097C330.535 59.9175 332.008 57.4902 333.047 54.7374L331.177 54.0306C330.222 56.5578 328.879 58.7652 327.149 60.6622L328.627 62.0097ZM333.04 54.7554C334.149 51.9845 334.696 48.9527 334.696 45.672H332.696C332.696 48.7273 332.187 51.5035 331.184 54.0126L333.04 54.7554ZM334.696 45.672C334.696 42.1082 334.152 38.8217 333.051 35.8232L331.173 36.5128C332.184 39.2636 332.696 42.3131 332.696 45.672H334.696ZM333.051 35.8232C331.948 32.8222 330.32 30.2075 328.165 27.9909L326.731 29.3851C328.683 31.3925 330.164 33.7645 331.173 36.5128L333.051 35.8232ZM328.174 28.0008C326.012 25.7152 323.39 23.9906 320.323 22.8252L319.613 24.6948C322.413 25.7587 324.777 27.3195 326.722 29.3752L328.174 28.0008ZM320.339 22.8315C317.266 21.6023 313.763 21 309.848 21V23C313.56 23 316.803 23.5711 319.597 24.6885L320.339 22.8315ZM309.848 21C305.033 21 300.746 21.873 297.011 23.6489L297.869 25.4551C301.291 23.8283 305.276 23 309.848 23V21ZM297.023 23.6432C293.337 25.3352 290.206 27.5502 287.645 30.2937L289.107 31.6583C291.474 29.1218 294.386 27.0541 297.857 25.4608L297.023 23.6432ZM287.645 30.2937C285.108 33.0116 283.163 35.9544 281.823 39.1224L283.665 39.9016C284.906 36.9682 286.716 34.2204 289.107 31.6583L287.645 30.2937ZM281.817 39.1375C280.546 42.2847 279.896 45.3161 279.896 48.224H281.896C281.896 45.6172 282.478 42.8406 283.671 39.8865L281.817 39.1375ZM279.896 48.224C279.896 51.2301 280.256 53.8147 281.009 55.9488L282.895 55.2832C282.24 53.4279 281.896 51.0845 281.896 48.224H279.896ZM281.012 55.9577C281.745 57.9728 282.66 59.5861 283.797 60.7231L285.211 59.3089C284.353 58.4512 283.567 57.1312 282.892 55.2743L281.012 55.9577ZM283.84 60.7634C285.039 61.8299 286.382 62.424 287.848 62.424V60.424C286.967 60.424 286.081 60.0794 285.168 59.2686L283.84 60.7634ZM287.848 62.424C289.445 62.424 290.892 61.6182 292.18 60.2656L290.732 58.8863C289.673 59.9978 288.715 60.424 287.848 60.424V62.424ZM292.179 60.2665C293.521 58.8613 294.779 56.8124 295.974 54.1818L294.154 53.3542C293.003 55.8863 291.855 57.7093 290.733 58.8855L292.179 60.2665ZM295.974 54.1818C297.173 51.5452 298.361 48.2429 299.542 44.286L297.626 43.714C296.46 47.6184 295.302 50.8281 294.154 53.3542L295.974 54.1818ZM299.537 44.3043C300.899 40.0397 302.052 35.4844 302.998 30.6395L301.035 30.2565C300.103 35.0329 298.968 39.5123 297.631 43.6957L299.537 44.3043ZM302.998 30.6395C303.942 25.7973 304.622 21.0698 305.036 16.4574L303.044 16.2786C302.637 20.8182 301.967 25.4774 301.035 30.2565L302.998 30.6395ZM304.011 17.3676L315.979 17.7196L316.037 15.7204L304.069 15.3684L304.011 17.3676Z" fill="black" mask="url(#path-1-outside-1_212_57)"/>
</svg>
